<svg version="1.1" viewBox="0.0 0.0 960.0 540.0" fill="none" stroke="none" stroke-linecap="square" stroke-miterlimit="10" xmlns:xlink="http://www.w3.org/1999/xlink" xmlns="http://www.w3.org/2000/svg"><clipPath id="g3d3b150eef_0_0.0"><path d="m0 0l960.0 0l0 540.0l-960.0 0l0 -540.0z" clip-rule="nonzero"/></clipPath><g clip-path="url(#g3d3b150eef_0_0.0)"><path fill="#ffffff" d="m0 0l960.0 0l0 540.0l-960.0 0z" fill-rule="evenodd"/><path fill="#eeeeee" d="m729.46716 43.680504l0 0c0 -19.723192 15.988831 -35.711998 35.712036 -35.711998l142.84369 0l0 0c9.471436 0 18.554932 3.7625036 25.252197 10.459803c6.6973267 6.6973 10.459839 15.780785 10.459839 25.252197l0 447.34766c0 19.723175 -15.988831 35.712006 -35.712036 35.712006l-142.84369 0c-19.723206 0 -35.712036 -15.988831 -35.712036 -35.712006z" fill-rule="evenodd"/><path fill="#eeeeee" d="m8.251968 47.877438l0 0c0 -22.045444 17.871365 -39.91681 39.91681 -39.91681l159.66245 0l0 0c10.586594 0 20.739594 4.2055087 28.225449 11.691362c7.485855 7.485853 11.69136 17.638851 11.69136 28.225445l0 438.93802c0 22.045471 -17.871368 39.91684 -39.91681 39.91684l-159.66245 0c-22.045444 0 -39.91681 -17.871368 -39.91681 -39.91684z" fill-rule="evenodd"/><path fill="#eeeeee" d="m360.25198 47.877438l0 0c0 -22.045444 17.871338 -39.91681 39.91678 -39.91681l159.66248 0l0 0c10.586609 0 20.739563 4.2055087 28.225403 11.691362c7.485901 7.485853 11.691406 17.638851 11.691406 28.225445l0 438.93802c0 22.045471 -17.871399 39.91684 -39.91681 39.91684l-159.66248 0c-22.04544 0 -39.91678 -17.871368 -39.91678 -39.91684z" fill-rule="evenodd"/><path fill="#6aa84f" d="m96.15748 270.0l0 0c0 -17.586136 14.256386 -31.842514 31.842522 -31.842514l0 0c8.44516 0 16.544434 3.354828 22.516068 9.326447c5.9716187 5.971634 9.326447 14.070908 9.326447 22.516068l0 0c0 17.586151 -14.256378 31.84253 -31.842514 31.84253l0 0c-17.586136 0 -31.842522 -14.256378 -31.842522 -31.84253z" fill-rule="evenodd"/><path fill="#ffab40" d="m448.15747 270.0l0 0c0 -17.586136 14.256378 -31.842514 31.84253 -31.842514l0 0c8.44516 0 16.544434 3.354828 22.516052 9.326447c5.971649 5.971634 9.326477 14.070908 9.326477 22.516068l0 0c0 17.586151 -14.256378 31.84253 -31.84253 31.84253l0 0c-17.586151 0 -31.84253 -14.256378 -31.84253 -31.84253z" fill-rule="evenodd"/><path fill="#e06666" d="m806.4724 270.0l0 0c0 -17.586136 14.256409 -31.842514 31.84253 -31.842514l0 0c8.44519 0 16.544434 3.354828 22.516052 9.326447c5.9716797 5.971634 9.326477 14.070908 9.326477 22.516068l0 0c0 17.586151 -14.256348 31.84253 -31.84253 31.84253l0 0c-17.58612 0 -31.84253 -14.256378 -31.84253 -31.84253z" fill-rule="evenodd"/><path fill="#ffab40" d="m448.15747 189.26247l0 0c0 -17.586136 14.256378 -31.842514 31.84253 -31.842514l0 0c8.44516 0 16.544434 3.354828 22.516052 9.326447c5.971649 5.971634 9.326477 14.070908 9.326477 22.516068l0 0c0 17.586136 -14.256378 31.842514 -31.84253 31.842514l0 0c-17.586151 0 -31.84253 -14.256378 -31.84253 -31.842514z" fill-rule="evenodd"/><path fill="#ffab40" d="m448.15747 108.52493l0 0c0 -17.586136 14.256378 -31.842522 31.84253 -31.842522l0 0c8.44516 0 16.544434 3.354828 22.516052 9.326462c5.971649 5.971634 9.326477 14.0709 9.326477 22.51606l0 0c0 17.586136 -14.256378 31.842514 -31.84253 31.842514l0 0c-17.586151 0 -31.84253 -14.256378 -31.84253 -31.842514z" fill-rule="evenodd"/><path fill="#ffab40" d="m448.15747 351.63516l0 0c0 -17.58612 14.256378 -31.842499 31.84253 -31.842499l0 0c8.44516 0 16.544434 3.354828 22.516052 9.326447c5.971649 5.9716187 9.326477 14.070892 9.326477 22.516052l0 0c0 17.586151 -14.256378 31.84253 -31.84253 31.84253l0 0c-17.586151 0 -31.84253 -14.256378 -31.84253 -31.84253z" fill-rule="evenodd"/><path fill="#ffab40" d="m448.15747 431.47507l0 0c0 -17.586151 14.256378 -31.84253 31.84253 -31.84253l0 0c8.44516 0 16.544434 3.354828 22.516052 9.326477c5.971649 5.9716187 9.326477 14.070892 9.326477 22.516052l0 0c0 17.586151 -14.256378 31.84253 -31.84253 31.84253l0 0c-17.586151 0 -31.84253 -14.256378 -31.84253 -31.84253z" fill-rule="evenodd"/><path fill="#000000" fill-opacity="0.0" d="m159.84251 270.0l288.31494 -161.48032" fill-rule="evenodd"/><path stroke="#999999" stroke-width="4.0" stroke-linejoin="round" stroke-linecap="butt" d="m159.84251 270.0l288.31494 -161.48032" fill-rule="evenodd"/><path fill="#000000" fill-opacity="0.0" d="m159.84251 270.0l288.31494 -80.72441" fill-rule="evenodd"/><path stroke="#999999" stroke-width="4.0" stroke-linejoin="round" stroke-linecap="butt" d="m159.84251 270.0l288.31494 -80.72441" fill-rule="evenodd"/><path fill="#000000" fill-opacity="0.0" d="m159.84251 270.0l288.31494 0" fill-rule="evenodd"/><path stroke="#999999" stroke-width="4.0" stroke-linejoin="round" stroke-linecap="butt" d="m159.84251 270.0l288.31494 0" fill-rule="evenodd"/><path fill="#000000" fill-opacity="0.0" d="m159.84251 270.0l288.31494 81.63779" fill-rule="evenodd"/><path stroke="#999999" stroke-width="4.0" stroke-linejoin="round" stroke-linecap="butt" d="m159.84251 270.0l288.31494 81.63779" fill-rule="evenodd"/><path fill="#000000" fill-opacity="0.0" d="m159.84251 270.0l288.31494 161.48032" fill-rule="evenodd"/><path stroke="#999999" stroke-width="4.0" stroke-linejoin="round" stroke-linecap="butt" d="m159.84251 270.0l288.31494 161.48032" fill-rule="evenodd"/><path fill="#000000" fill-opacity="0.0" d="m511.84253 108.52493l294.64563 161.48032" fill-rule="evenodd"/><path stroke="#999999" stroke-width="4.0" stroke-linejoin="round" stroke-linecap="butt" d="m511.84253 108.52493l294.64563 161.48032" fill-rule="evenodd"/><path fill="#000000" fill-opacity="0.0" d="m511.84253 189.26247l294.64563 80.72441" fill-rule="evenodd"/><path stroke="#999999" stroke-width="4.0" stroke-linejoin="round" stroke-linecap="butt" d="m511.84253 189.26247l294.64563 80.72441" fill-rule="evenodd"/><path fill="#000000" fill-opacity="0.0" d="m511.84253 270.0l294.64563 0" fill-rule="evenodd"/><path stroke="#999999" stroke-width="4.0" stroke-linejoin="round" stroke-linecap="butt" d="m511.84253 270.0l294.64563 0" fill-rule="evenodd"/><path fill="#000000" fill-opacity="0.0" d="m511.84253 351.63516l294.64563 -81.63779" fill-rule="evenodd"/><path stroke="#999999" stroke-width="4.0" stroke-linejoin="round" stroke-linecap="butt" d="m511.84253 351.63516l294.64563 -81.63779" fill-rule="evenodd"/><path fill="#000000" fill-opacity="0.0" d="m511.84253 431.47507l294.64563 -161.48032" fill-rule="evenodd"/><path stroke="#999999" stroke-width="4.0" stroke-linejoin="round" stroke-linecap="butt" d="m511.84253 431.47507l294.64563 -161.48032" fill-rule="evenodd"/><path fill="#000000" fill-opacity="0.0" d="m25.774279 8.0l199.90552 0l0 69.66929l-199.90552 0z" fill-rule="evenodd"/><path fill="#38761d" d="m66.68797 40.04l0 -17.1875l3.46875 0l0 17.1875l-3.46875 0zm18.074219 0l-3.296875 0l0 -6.359375q0 -2.015625 -0.21875 -2.59375q-0.203125 -0.59375 -0.6875 -0.921875q-0.46875 -0.328125 -1.125 -0.328125q-0.859375 0 -1.546875 0.46875q-0.671875 0.46875 -0.921875 1.25q-0.25 0.765625 -0.25 2.84375l0 5.640625l-3.296875 0l0 -12.453125l3.0625 0l0 1.828125q1.625 -2.109375 4.09375 -2.109375q1.09375 0 1.984375 0.40625q0.90625 0.390625 1.375 1.0q0.46875 0.609375 0.640625 1.390625q0.1875 0.765625 0.1875 2.203125l0 7.734375zm3.2382812 -12.453125l3.078125 0l0 1.828125q0.59375 -0.9375 1.609375 -1.515625q1.03125 -0.59375 2.265625 -0.59375q2.171875 0 3.671875 1.703125q1.515625 1.703125 1.515625 4.734375q0 3.125 -1.53125 4.859375q-1.515625 1.71875 -3.671875 1.71875q-1.03125 0 -1.875 -0.40625q-0.84375 -0.421875 -1.765625 -1.40625l0 6.265625l-3.296875 0l0 -17.1875zm3.265625 6.015625q0 2.09375 0.828125 3.109375q0.828125 1.0 2.03125 1.0q1.140625 0 1.90625 -0.921875q0.765625 -0.921875 0.765625 -3.015625q0 -1.96875 -0.796875 -2.90625q-0.78125 -0.953125 -1.9375 -0.953125q-1.203125 0 -2.0 0.9375q-0.796875 0.921875 -0.796875 2.75zm19.691406 6.4375l0 -1.859375q-0.6875 0.984375 -1.796875 1.5625q-1.109375 0.578125 -2.328125 0.578125q-1.265625 0 -2.265625 -0.546875q-0.984375 -0.5625 -1.4375 -1.546875q-0.4375 -1.0 -0.4375 -2.765625l0 -7.875l3.296875 0l0 5.71875q0 2.625 0.171875 3.21875q0.1875 0.59375 0.65625 0.9375q0.484375 0.34375 1.234375 0.34375q0.84375 0 1.5 -0.453125q0.671875 -0.46875 0.921875 -1.15625q0.25 -0.6875 0.25 -3.359375l0 -5.25l3.28125 0l0 12.453125l-3.046875 0zm12.175781 -12.453125l0 2.625l-2.25 0l0 5.015625q0 1.53125 0.0625 1.78125q0.0625 0.25 0.28125 0.421875q0.234375 0.15625 0.5625 0.15625q0.453125 0 1.328125 -0.3125l0.28125 2.546875q-1.15625 0.5 -2.609375 0.5q-0.890625 0 -1.609375 -0.296875q-0.703125 -0.296875 -1.046875 -0.765625q-0.328125 -0.484375 -0.453125 -1.296875q-0.109375 -0.578125 -0.109375 -2.3125l0 -5.4375l-1.515625 0l0 -2.625l1.515625 0l0 -2.46875l3.3125 -1.921875l0 4.390625l2.25 0zm8.941406 12.453125l0 -17.1875l3.296875 0l0 17.1875l-3.296875 0zm9.136719 -8.65625l-2.984375 -0.53125q0.5 -1.8125 1.71875 -2.671875q1.234375 -0.875 3.671875 -0.875q2.203125 0 3.28125 0.53125q1.078125 0.515625 1.515625 1.328125q0.4375 0.796875 0.4375 2.9375l-0.03125 3.84375q0 1.640625 0.15625 2.421875q0.15625 0.78125 0.59375 1.671875l-3.265625 0q-0.125 -0.328125 -0.3125 -0.96875q-0.078125 -0.296875 -0.125 -0.390625q-0.84375 0.8125 -1.8125 1.234375q-0.953125 0.40625 -2.03125 0.40625q-1.921875 0 -3.03125 -1.046875q-1.109375 -1.046875 -1.109375 -2.640625q0 -1.046875 0.5 -1.875q0.5 -0.828125 1.40625 -1.265625q0.921875 -0.4375 2.625 -0.765625q2.3125 -0.4375 3.203125 -0.8125l0 -0.328125q0 -0.953125 -0.46875 -1.34375q-0.46875 -0.40625 -1.765625 -0.40625q-0.890625 0 -1.390625 0.34375q-0.484375 0.34375 -0.78125 1.203125zm4.40625 2.671875q-0.640625 0.21875 -2.015625 0.515625q-1.359375 0.28125 -1.78125 0.5625q-0.640625 0.46875 -0.640625 1.171875q0 0.6875 0.515625 1.1875q0.515625 0.5 1.3125 0.5q0.890625 0 1.6875 -0.578125q0.609375 -0.453125 0.796875 -1.09375q0.125 -0.421875 0.125 -1.609375l0 -0.65625zm4.9257812 -6.46875l3.5 0l2.96875 8.84375l2.90625 -8.84375l3.421875 0l-4.40625 11.984375l-0.78125 2.171875q-0.4375 1.09375 -0.828125 1.65625q-0.390625 0.578125 -0.90625 0.9375q-0.5 0.359375 -1.25 0.546875q-0.734375 0.203125 -1.671875 0.203125q-0.953125 0 -1.875 -0.1875l-0.28125 -2.578125q0.765625 0.140625 1.390625 0.140625q1.140625 0 1.6875 -0.671875q0.5625 -0.671875 0.859375 -1.71875l-4.734375 -12.484375zm22.113281 8.484375l3.28125 0.5625q-0.640625 1.796875 -2.015625 2.75q-1.359375 0.9375 -3.40625 0.9375q-3.25 0 -4.796875 -2.125q-1.234375 -1.703125 -1.234375 -4.28125q0 -3.09375 1.609375 -4.84375q1.625 -1.765625 4.09375 -1.765625q2.78125 0 4.375 1.84375q1.609375 1.828125 1.546875 5.609375l-8.25 0q0.03125 1.46875 0.796875 2.28125q0.765625 0.8125 1.890625 0.8125q0.78125 0 1.296875 -0.421875q0.53125 -0.421875 0.8125 -1.359375zm0.1875 -3.328125q-0.046875 -1.421875 -0.75 -2.15625q-0.703125 -0.75 -1.703125 -0.75q-1.078125 0 -1.78125 0.78125q-0.703125 0.78125 -0.6875 2.125l4.921875 0zm9.097656 7.296875l-3.296875 0l0 -12.453125l3.0625 0l0 1.78125q0.78125 -1.265625 1.40625 -1.65625q0.640625 -0.40625 1.4375 -0.40625q1.125 0 2.15625 0.625l-1.015625 2.875q-0.828125 -0.546875 -1.546875 -0.546875q-0.6875 0 -1.171875 0.390625q-0.484375 0.375 -0.765625 1.375q-0.265625 1.0 -0.265625 4.171875l0 3.84375z" fill-rule="nonzero"/><path fill="#38761d" d="m105.42366 64.37312l2.46875 -0.296875q0.125 0.953125 0.640625 1.453125q0.53125 0.5 1.265625 0.5q0.78125 0 1.328125 -0.59375q0.546875 -0.609375 0.546875 -1.640625q0 -0.953125 -0.53125 -1.515625q-0.515625 -0.578125 -1.25 -0.578125q-0.5 0 -1.1875 0.203125l0.28125 -2.09375q1.046875 0.03125 1.59375 -0.4375q0.546875 -0.484375 0.546875 -1.28125q0 -0.671875 -0.40625 -1.078125q-0.390625 -0.40625 -1.0625 -0.40625q-0.65625 0 -1.125 0.46875q-0.453125 0.453125 -0.5625 1.328125l-2.359375 -0.40625q0.25 -1.203125 0.734375 -1.921875q0.5 -0.734375 1.390625 -1.140625q0.890625 -0.421875 2.0 -0.421875q1.875 0 3.015625 1.203125q0.9375 0.984375 0.9375 2.21875q0 1.765625 -1.921875 2.8125q1.15625 0.234375 1.84375 1.09375q0.6875 0.859375 0.6875 2.0625q0 1.765625 -1.296875 3.015625q-1.28125 1.234375 -3.1875 1.234375q-1.8125 0 -3.015625 -1.046875q-1.1875 -1.046875 -1.375 -2.734375zm15.871521 -0.28125l2.75 -2.75l-2.765625 -2.765625l1.6875 -1.6875l2.765625 2.765625l2.75 -2.75l1.65625 1.65625l-2.75 2.75l2.78125 2.78125l-1.703125 1.6875l-2.78125 -2.78125l-2.75 2.75l-1.640625 -1.65625zm22.406387 3.828125l-2.5625 0l0 -9.640625q-1.40625 1.3125 -3.3125 1.9375l0 -2.328125q1.015625 -0.328125 2.1875 -1.234375q1.171875 -0.921875 1.609375 -2.140625l2.078125 0l0 13.40625z" fill-rule="nonzero"/><path fill="#000000" fill-opacity="0.0" d="m373.46982 5.2598424l211.37009 0l0 69.66929l-211.37009 0z" fill-rule="evenodd"/><path fill="#b45f06" d="m408.89703 37.299843l0 -17.1875l3.46875 0l0 6.765625l6.796875 0l0 -6.765625l3.46875 0l0 17.1875l-3.46875 0l0 -7.515625l-6.796875 0l0 7.515625l-3.46875 0zm17.285156 -14.140625l0 -3.046875l3.296875 0l0 3.046875l-3.296875 0zm0 14.140625l0 -12.453125l3.296875 0l0 12.453125l-3.296875 0zm18.089844 0l-3.0625 0l0 -1.828125q-0.765625 1.0625 -1.796875 1.59375q-1.03125 0.515625 -2.09375 0.515625q-2.140625 0 -3.671875 -1.71875q-1.53125 -1.734375 -1.53125 -4.828125q0 -3.171875 1.484375 -4.8125q1.5 -1.65625 3.765625 -1.65625q2.09375 0 3.609375 1.734375l0 -6.1875l3.296875 0l0 17.1875zm-8.796875 -6.5q0 2.0 0.5625 2.890625q0.796875 1.28125 2.21875 1.28125q1.140625 0 1.9375 -0.953125q0.796875 -0.96875 0.796875 -2.890625q0 -2.15625 -0.78125 -3.09375q-0.765625 -0.9375 -1.96875 -0.9375q-1.171875 0 -1.96875 0.9375q-0.796875 0.921875 -0.796875 2.765625zm23.457031 6.5l-3.0625 0l0 -1.828125q-0.765625 1.0625 -1.796875 1.59375q-1.03125 0.515625 -2.09375 0.515625q-2.140625 0 -3.671875 -1.71875q-1.53125 -1.734375 -1.53125 -4.828125q0 -3.171875 1.484375 -4.8125q1.5 -1.65625 3.765625 -1.65625q2.09375 0 3.609375 1.734375l0 -6.1875l3.296875 0l0 17.1875zm-8.796875 -6.5q0 2.0 0.5625 2.890625q0.796875 1.28125 2.21875 1.28125q1.140625 0 1.9375 -0.953125q0.796875 -0.96875 0.796875 -2.890625q0 -2.15625 -0.78125 -3.09375q-0.765625 -0.9375 -1.96875 -0.9375q-1.171875 0 -1.96875 0.9375q-0.796875 0.921875 -0.796875 2.765625zm19.253906 2.53125l3.28125 0.5625q-0.640625 1.796875 -2.015625 2.75q-1.359375 0.9375 -3.40625 0.9375q-3.25 0 -4.796875 -2.125q-1.234375 -1.703125 -1.234375 -4.28125q0 -3.09375 1.609375 -4.84375q1.625 -1.765625 4.09375 -1.765625q2.78125 0 4.375 1.84375q1.609375 1.828125 1.546875 5.609375l-8.25 0q0.03125 1.46875 0.796875 2.28125q0.765625 0.8125 1.890625 0.8125q0.78125 0 1.296875 -0.421875q0.53125 -0.421875 0.8125 -1.359375zm0.1875 -3.328125q-0.046875 -1.421875 -0.75 -2.15625q-0.703125 -0.75 -1.703125 -0.75q-1.078125 0 -1.78125 0.78125q-0.703125 0.78125 -0.6875 2.125l4.921875 0zm17.269531 7.296875l-3.296875 0l0 -6.359375q0 -2.015625 -0.21875 -2.59375q-0.203125 -0.59375 -0.6875 -0.921875q-0.46875 -0.328125 -1.125 -0.328125q-0.859375 0 -1.546875 0.46875q-0.671875 0.46875 -0.921875 1.25q-0.25 0.765625 -0.25 2.84375l0 5.640625l-3.296875 0l0 -12.453125l3.0625 0l0 1.828125q1.625 -2.109375 4.09375 -2.109375q1.09375 0 1.984375 0.40625q0.90625 0.390625 1.375 1.0q0.46875 0.609375 0.640625 1.390625q0.1875 0.765625 0.1875 2.203125l0 7.734375zm10.0 0l0 -17.1875l3.296875 0l0 17.1875l-3.296875 0zm9.136719 -8.65625l-2.984375 -0.53125q0.5 -1.8125 1.71875 -2.671875q1.234375 -0.875 3.671875 -0.875q2.203125 0 3.28125 0.53125q1.078125 0.515625 1.515625 1.328125q0.4375 0.796875 0.4375 2.9375l-0.03125 3.84375q0 1.640625 0.15625 2.421875q0.15625 0.78125 0.59375 1.671875l-3.265625 0q-0.125 -0.328125 -0.3125 -0.96875q-0.078125 -0.296875 -0.125 -0.390625q-0.84375 0.8125 -1.8125 1.234375q-0.953125 0.40625 -2.03125 0.40625q-1.921875 0 -3.03125 -1.046875q-1.109375 -1.046875 -1.109375 -2.640625q0 -1.046875 0.5 -1.875q0.5 -0.828125 1.40625 -1.265625q0.921875 -0.4375 2.625 -0.765625q2.3125 -0.4375 3.203125 -0.8125l0 -0.328125q0 -0.953125 -0.46875 -1.34375q-0.46875 -0.40625 -1.765625 -0.40625q-0.890625 0 -1.390625 0.34375q-0.484375 0.34375 -0.78125 1.203125zm4.40625 2.671875q-0.640625 0.21875 -2.015625 0.515625q-1.359375 0.28125 -1.78125 0.5625q-0.640625 0.46875 -0.640625 1.171875q0 0.6875 0.515625 1.1875q0.515625 0.5 1.3125 0.5q0.890625 0 1.6875 -0.578125q0.609375 -0.453125 0.796875 -1.09375q0.125 -0.421875 0.125 -1.609375l0 -0.65625zm4.9257812 -6.46875l3.5 0l2.96875 8.84375l2.90625 -8.84375l3.421875 0l-4.40625 11.984375l-0.78125 2.171875q-0.4375 1.09375 -0.828125 1.65625q-0.390625 0.578125 -0.90625 0.9375q-0.5 0.359375 -1.25 0.546875q-0.734375 0.203125 -1.671875 0.203125q-0.953125 0 -1.875 -0.1875l-0.28125 -2.578125q0.765625 0.140625 1.390625 0.140625q1.140625 0 1.6875 -0.671875q0.5625 -0.671875 0.859375 -1.71875l-4.734375 -12.484375zm22.113281 8.484375l3.28125 0.5625q-0.640625 1.796875 -2.015625 2.75q-1.359375 0.9375 -3.40625 0.9375q-3.25 0 -4.796875 -2.125q-1.234375 -1.703125 -1.234375 -4.28125q0 -3.09375 1.609375 -4.84375q1.625 -1.765625 4.09375 -1.765625q2.78125 0 4.375 1.84375q1.609375 1.828125 1.546875 5.609375l-8.25 0q0.03125 1.46875 0.796875 2.28125q0.765625 0.8125 1.890625 0.8125q0.78125 0 1.296875 -0.421875q0.53125 -0.421875 0.8125 -1.359375zm0.1875 -3.328125q-0.046875 -1.421875 -0.75 -2.15625q-0.703125 -0.75 -1.703125 -0.75q-1.078125 0 -1.78125 0.78125q-0.703125 0.78125 -0.6875 2.125l4.921875 0zm9.097656 7.296875l-3.296875 0l0 -12.453125l3.0625 0l0 1.78125q0.78125 -1.265625 1.40625 -1.65625q0.640625 -0.40625 1.4375 -0.40625q1.125 0 2.15625 0.625l-1.015625 2.875q-0.828125 -0.546875 -1.546875 -0.546875q-0.6875 0 -1.171875 0.390625q-0.484375 0.375 -0.765625 1.375q-0.265625 1.0 -0.265625 4.171875l0 3.84375z" fill-rule="nonzero"/><path fill="#b45f06" d="m458.97647 61.74234l2.546875 -0.265625q0.109375 0.875 0.640625 1.375q0.546875 0.5 1.25 0.5q0.796875 0 1.34375 -0.640625q0.5625 -0.65625 0.5625 -1.96875q0 -1.234375 -0.546875 -1.84375q-0.546875 -0.609375 -1.4375 -0.609375q-1.09375 0 -1.96875 0.96875l-2.078125 -0.296875l1.3125 -6.953125l6.765625 0l0 2.390625l-4.828125 0l-0.40625 2.265625q0.859375 -0.421875 1.75 -0.421875q1.703125 0 2.890625 1.25q1.1875 1.234375 1.1875 3.203125q0 1.65625 -0.953125 2.9375q-1.3125 1.78125 -3.625 1.78125q-1.84375 0 -3.015625 -1.0q-1.15625 -1.0 -1.390625 -2.671875zm15.746521 -0.390625l2.75 -2.75l-2.765625 -2.765625l1.6875 -1.6875l2.765625 2.765625l2.75 -2.75l1.65625 1.65625l-2.75 2.75l2.78125 2.78125l-1.703125 1.6875l-2.78125 -2.78125l-2.75 2.75l-1.640625 -1.65625zm22.406403 3.828125l-2.5625 0l0 -9.640625q-1.40625 1.3125 -3.3125 1.9375l0 -2.328125q1.015625 -0.328125 2.1875 -1.234375q1.171875 -0.921875 1.609375 -2.140625l2.078125 0l0 13.40625z" fill-rule="nonzero"/><path fill="#000000" fill-opacity="0.0" d="m732.62994 8.0l211.37006 0l0 69.66929l-211.37006 0z" fill-rule="evenodd"/><path fill="#990000" d="m768.68604 31.555626q0 -2.625 0.78125 -4.40625q0.59375 -1.3125 1.59375 -2.359375q1.015625 -1.046875 2.234375 -1.546875q1.59375 -0.671875 3.703125 -0.671875q3.796875 0 6.0625 2.359375q2.28125 2.34375 2.28125 6.546875q0 4.15625 -2.265625 6.515625q-2.25 2.34375 -6.03125 2.34375q-3.84375 0 -6.109375 -2.34375q-2.25 -2.34375 -2.25 -6.4375zm3.578125 -0.125q0 2.921875 1.34375 4.4375q1.34375 1.5 3.421875 1.5q2.078125 0 3.40625 -1.484375q1.328125 -1.5 1.328125 -4.5q0 -2.953125 -1.296875 -4.40625q-1.296875 -1.453125 -3.4375 -1.453125q-2.140625 0 -3.453125 1.484375q-1.3125 1.46875 -1.3125 4.421875zm23.964844 8.609375l0 -1.859375q-0.6875 0.984375 -1.796875 1.5625q-1.109375 0.578125 -2.328125 0.578125q-1.265625 0 -2.265625 -0.546875q-0.984375 -0.5625 -1.4375 -1.546875q-0.4375 -1.0 -0.4375 -2.765625l0 -7.875l3.296875 0l0 5.71875q0 2.625 0.171875 3.21875q0.1875 0.59375 0.65625 0.9375q0.484375 0.34375 1.234375 0.34375q0.84375 0 1.5 -0.453125q0.671875 -0.46875 0.921875 -1.15625q0.25 -0.6875 0.25 -3.359375l0 -5.25l3.28125 0l0 12.453125l-3.046875 0zm12.175781 -12.453125l0 2.625l-2.25 0l0 5.015625q0 1.53125 0.0625 1.78125q0.0625 0.25 0.28125 0.421875q0.234375 0.15625 0.5625 0.15625q0.453125 0 1.328125 -0.3125l0.28125 2.546875q-1.15625 0.5 -2.609375 0.5q-0.890625 0 -1.609375 -0.296875q-0.703125 -0.296875 -1.046875 -0.765625q-0.328125 -0.484375 -0.453125 -1.296875q-0.109375 -0.578125 -0.109375 -2.3125l0 -5.4375l-1.515625 0l0 -2.625l1.515625 0l0 -2.46875l3.3125 -1.921875l0 4.390625l2.25 0zm2.1796875 0l3.078125 0l0 1.828125q0.59375 -0.9375 1.609375 -1.515625q1.03125 -0.59375 2.265625 -0.59375q2.171875 0 3.671875 1.703125q1.515625 1.703125 1.515625 4.734375q0 3.125 -1.53125 4.859375q-1.515625 1.71875 -3.671875 1.71875q-1.03125 0 -1.875 -0.40625q-0.84375 -0.421875 -1.765625 -1.40625l0 6.265625l-3.296875 0l0 -17.1875zm3.265625 6.015625q0 2.09375 0.828125 3.109375q0.828125 1.0 2.03125 1.0q1.140625 0 1.90625 -0.921875q0.765625 -0.921875 0.765625 -3.015625q0 -1.96875 -0.796875 -2.90625q-0.78125 -0.953125 -1.9375 -0.953125q-1.203125 0 -2.0 0.9375q-0.796875 0.921875 -0.796875 2.75zm19.691406 6.4375l0 -1.859375q-0.6875 0.984375 -1.796875 1.5625q-1.109375 0.578125 -2.328125 0.578125q-1.265625 0 -2.265625 -0.546875q-0.984375 -0.5625 -1.4375 -1.546875q-0.4375 -1.0 -0.4375 -2.765625l0 -7.875l3.296875 0l0 5.71875q0 2.625 0.171875 3.21875q0.1875 0.59375 0.65625 0.9375q0.484375 0.34375 1.234375 0.34375q0.84375 0 1.5 -0.453125q0.671875 -0.46875 0.921875 -1.15625q0.25 -0.6875 0.25 -3.359375l0 -5.25l3.28125 0l0 12.453125l-3.046875 0zm12.175781 -12.453125l0 2.625l-2.25 0l0 5.015625q0 1.53125 0.0625 1.78125q0.0625 0.25 0.28125 0.421875q0.234375 0.15625 0.5625 0.15625q0.453125 0 1.328125 -0.3125l0.28125 2.546875q-1.15625 0.5 -2.609375 0.5q-0.890625 0 -1.609375 -0.296875q-0.703125 -0.296875 -1.046875 -0.765625q-0.328125 -0.484375 -0.453125 -1.296875q-0.109375 -0.578125 -0.109375 -2.3125l0 -5.4375l-1.515625 0l0 -2.625l1.515625 0l0 -2.46875l3.3125 -1.921875l0 4.390625l2.25 0zm8.941406 12.453125l0 -17.1875l3.296875 0l0 17.1875l-3.296875 0zm9.136719 -8.65625l-2.984375 -0.53125q0.5 -1.8125 1.71875 -2.671875q1.234375 -0.875 3.671875 -0.875q2.203125 0 3.28125 0.53125q1.078125 0.515625 1.515625 1.328125q0.4375 0.796875 0.4375 2.9375l-0.03125 3.84375q0 1.640625 0.15625 2.421875q0.15625 0.78125 0.59375 1.671875l-3.265625 0q-0.125 -0.328125 -0.3125 -0.96875q-0.078125 -0.296875 -0.125 -0.390625q-0.84375 0.8125 -1.8125 1.234375q-0.953125 0.40625 -2.03125 0.40625q-1.921875 0 -3.03125 -1.046875q-1.109375 -1.046875 -1.109375 -2.640625q0 -1.046875 0.5 -1.875q0.5 -0.828125 1.40625 -1.265625q0.921875 -0.4375 2.625 -0.765625q2.3125 -0.4375 3.203125 -0.8125l0 -0.328125q0 -0.953125 -0.46875 -1.34375q-0.46875 -0.40625 -1.765625 -0.40625q-0.890625 0 -1.390625 0.34375q-0.484375 0.34375 -0.78125 1.203125zm4.40625 2.671875q-0.640625 0.21875 -2.015625 0.515625q-1.359375 0.28125 -1.78125 0.5625q-0.640625 0.46875 -0.640625 1.171875q0 0.6875 0.515625 1.1875q0.515625 0.5 1.3125 0.5q0.890625 0 1.6875 -0.578125q0.609375 -0.453125 0.796875 -1.09375q0.125 -0.421875 0.125 -1.609375l0 -0.65625zm4.9257812 -6.46875l3.5 0l2.96875 8.84375l2.90625 -8.84375l3.421875 0l-4.40625 11.984375l-0.78125 2.171875q-0.4375 1.09375 -0.828125 1.65625q-0.390625 0.578125 -0.90625 0.9375q-0.5 0.359375 -1.25 0.546875q-0.734375 0.203125 -1.671875 0.203125q-0.953125 0 -1.875 -0.1875l-0.28125 -2.578125q0.765625 0.140625 1.390625 0.140625q1.140625 0 1.6875 -0.671875q0.5625 -0.671875 0.859375 -1.71875l-4.734375 -12.484375zm22.113281 8.484375l3.28125 0.5625q-0.640625 1.796875 -2.015625 2.75q-1.359375 0.9375 -3.40625 0.9375q-3.25 0 -4.796875 -2.125q-1.234375 -1.703125 -1.234375 -4.28125q0 -3.09375 1.609375 -4.84375q1.625 -1.765625 4.09375 -1.765625q2.78125 0 4.375 1.84375q1.609375 1.828125 1.546875 5.609375l-8.25 0q0.03125 1.46875 0.796875 2.28125q0.765625 0.8125 1.890625 0.8125q0.78125 0 1.296875 -0.421875q0.53125 -0.421875 0.8125 -1.359375zm0.1875 -3.328125q-0.046875 -1.421875 -0.75 -2.15625q-0.703125 -0.75 -1.703125 -0.75q-1.078125 0 -1.78125 0.78125q-0.703125 0.78125 -0.6875 2.125l4.921875 0zm9.097656 7.296875l-3.296875 0l0 -12.453125l3.0625 0l0 1.78125q0.78125 -1.265625 1.40625 -1.65625q0.640625 -0.40625 1.4375 -0.40625q1.125 0 2.15625 0.625l-1.015625 2.875q-0.828125 -0.546875 -1.546875 -0.546875q-0.6875 0 -1.171875 0.390625q-0.484375 0.375 -0.765625 1.375q-0.265625 1.0 -0.265625 4.171875l0 3.84375z" fill-rule="nonzero"/><path fill="#990000" d="m824.6522 67.92l-2.5625 0l0 -9.640625q-1.40625 1.3125 -3.3125 1.9375l0 -2.328125q1.015625 -0.328125 2.1875 -1.234375q1.171875 -0.921875 1.609375 -2.140625l2.078125 0l0 13.40625zm9.230896 -3.828125l2.75 -2.75l-2.765625 -2.765625l1.6875 -1.6875l2.765625 2.765625l2.75 -2.75l1.65625 1.65625l-2.75 2.75l2.78125 2.78125l-1.703125 1.6875l-2.78125 -2.78125l-2.75 2.75l-1.640625 -1.65625zm22.406372 3.828125l-2.5625 0l0 -9.640625q-1.40625 1.3125 -3.3125 1.9375l0 -2.328125q1.015625 -0.328125 2.1875 -1.234375q1.171875 -0.921875 1.609375 -2.140625l2.078125 0l0 13.40625z" fill-rule="nonzero"/><path fill="#000000" fill-opacity="0.0" d="m101.13386 474.16534l53.732277 0l0 44.566956l-53.732277 0z" fill-rule="evenodd"/><path fill="#000000" d="m121.91647 497.94223l2.4375 3.453125q0.34375 0.484375 0.609375 0.8125q0.265625 0.3125 0.515625 0.5q0.25 0.171875 0.5625 0.25l0 0.6875l-5.078125 0l0 -0.6875q0.65625 -0.078125 0.65625 -0.546875q0 -0.125 -0.03125 -0.234375q-0.03125 -0.109375 -0.09375 -0.21875q-0.0625 -0.109375 -0.25 -0.375l-1.1875 -1.6875l-1.09375 1.34375q-0.34375 0.421875 -0.4375 0.625q-0.09375 0.203125 -0.09375 0.453125q0 0.25 0.1875 0.421875q0.1875 0.171875 0.59375 0.21875l0 0.6875l-4.0 0l0 -0.6875q0.4375 -0.09375 0.890625 -0.453125q0.453125 -0.375 1.109375 -1.109375l2.171875 -2.46875l-2.453125 -3.453125q-0.21875 -0.34375 -0.390625 -0.546875q-0.171875 -0.21875 -0.34375 -0.40625q-0.171875 -0.203125 -0.3125 -0.3125q-0.140625 -0.109375 -0.265625 -0.15625q-0.125 -0.046875 -0.234375 -0.046875l0 -0.6875l5.046875 0l0 0.6875q-0.65625 0.125 -0.65625 0.578125q0 0.171875 0.09375 0.375q0.09375 0.1875 0.296875 0.484375l1.078125 1.53125l1.0625 -1.328125q0.25 -0.3125 0.34375 -0.515625q0.09375 -0.21875 0.09375 -0.453125q0 -0.296875 -0.21875 -0.46875q-0.203125 -0.1875 -0.5625 -0.203125l0 -0.6875l3.953125 0l0 0.6875q-0.453125 0.109375 -0.859375 0.4375q-0.390625 0.328125 -1.140625 1.234375l-2.0 2.265625z" fill-rule="nonzero"/><path fill="#000000" d="m131.37207 498.66098q-1.171875 0 -1.921875 -0.359375q-0.75 -0.34375 -1.171875 -1.078125q-0.40625 -0.71875 -0.59375 -1.875q-0.1875 -1.15625 -0.1875 -3.140625q0 -1.984375 0.1875 -3.140625q0.1875 -1.171875 0.59375 -1.90625q0.421875 -0.75 1.171875 -1.109375q0.75 -0.375 1.921875 -0.375l0 0.578125q-0.484375 0 -0.859375 0.078125q-0.421875 0.09375 -0.71875 0.375q-0.328125 0.3125 -0.546875 0.859375q-0.234375 0.640625 -0.359375 1.6875q-0.125 1.125 -0.125 2.890625q0 1.5625 0.109375 2.65625q0.109375 1.09375 0.34375 1.78125q0.203125 0.59375 0.484375 0.921875q0.265625 0.28125 0.609375 0.421875q0.421875 0.171875 1.0625 0.171875l0 0.5625z" fill-rule="nonzero"/><path fill="#000000" d="m135.56685 486.28598l-0.328125 1.34375l-1.21875 0l0.3125 -1.34375l1.234375 0zm-1.71875 7.625q-0.078125 0.359375 -0.09375 0.515625q-0.015625 0.15625 -0.015625 0.28125q0 0.203125 0.0625 0.328125q0.0625 0.109375 0.203125 0.171875q0.15625 0.0625 0.484375 0.09375l-0.0625 0.34375l-2.1406403 0l1.0468903 -4.671875q0.09375 -0.40625 0.125 -0.640625q0.03125 -0.25 0.03125 -0.40625q0 -0.203125 -0.0625 -0.3125q-0.0625 -0.109375 -0.203125 -0.15625q-0.12501526 -0.0625 -0.46876526 -0.078125l0.078125 -0.375l1.6875153 -0.0625l0.40625 0l-1.078125 4.96875z" fill-rule="nonzero"/><path fill="#000000" d="m135.82626 485.6766q1.1875 0 1.921875 0.359375q0.75 0.359375 1.15625 1.09375q0.421875 0.71875 0.609375 1.875q0.1875 1.15625 0.1875 3.140625q0 1.96875 -0.1875 3.140625q-0.171875 1.171875 -0.59375 1.90625q-0.40625 0.734375 -1.15625 1.09375q-0.75 0.375 -1.9375 0.375l0 -0.5625q0.484375 0 0.859375 -0.078125q0.421875 -0.109375 0.71875 -0.375q0.34375 -0.3125 0.546875 -0.859375q0.25 -0.640625 0.359375 -1.703125q0.125 -1.109375 0.125 -2.875q0 -1.5625 -0.109375 -2.65625q-0.09375 -1.09375 -0.34375 -1.796875q-0.1875 -0.578125 -0.484375 -0.90625q-0.25 -0.28125 -0.609375 -0.4375q-0.40625 -0.15625 -1.0625 -0.15625l0 -0.578125z" fill-rule="nonzero"/><path fill="#000000" fill-opacity="0.0" d="m372.86615 474.16534l214.2677 0l0 44.566956l-214.2677 0z" fill-rule="evenodd"/><path fill="#000000" d="m392.898 502.28598l-0.15625 -0.0625q-0.84375 0.84375 -1.65625 1.21875q-0.8125 0.375 -1.71875 0.375q-0.890625 0 -1.5625 -0.328125q-0.65625 -0.328125 -1.0 -0.90625q-0.328125 -0.59375 -0.328125 -1.359375q0 -1.53125 1.5 -2.40625q1.515625 -0.875 4.578125 -1.109375l0 -0.984375q0 -0.96875 -0.21875 -1.5q-0.21875 -0.53125 -0.5625 -0.734375q-0.34375 -0.21875 -0.828125 -0.21875q-0.484375 0 -0.828125 0.171875q-0.34375 0.15625 -0.625 0.625q-0.28125 0.46875 -0.421875 1.28125l-1.96875 0l0 -1.890625q0.953125 -0.421875 1.59375 -0.65625q0.640625 -0.234375 1.25 -0.375q0.625 -0.15625 1.109375 -0.21875q0.5 -0.0625 0.984375 -0.0625q1.265625 0 2.015625 0.34375q0.75 0.328125 1.125 1.078125q0.375 0.75 0.375 2.0625l0 4.0625q0 0.6875 0.03125 1.0625q0.03125 0.375 0.09375 0.5625q0.078125 0.1875 0.171875 0.296875q0.109375 0.109375 0.265625 0.171875q0.15625 0.0625 0.5625 0.171875l0 0.6875l-3.875 0l0.09375 -1.359375zm-0.34375 -3.5625q-1.609375 0.046875 -2.390625 0.609375q-0.765625 0.5625 -0.765625 1.640625q0 0.65625 0.34375 1.0q0.359375 0.328125 0.984375 0.328125q0.484375 0 0.90625 -0.25q0.421875 -0.265625 0.671875 -0.6875q0.25 -0.421875 0.25 -0.90625l0 -1.734375z" fill-rule="nonzero"/><path fill="#000000" d="m402.39 498.66098q-1.171875 0 -1.921875 -0.359375q-0.75 -0.34375 -1.171875 -1.078125q-0.40625 -0.71875 -0.59375 -1.875q-0.1875 -1.15625 -0.1875 -3.140625q0 -1.984375 0.1875 -3.140625q0.1875 -1.171875 0.59375 -1.90625q0.421875 -0.75 1.171875 -1.109375q0.75 -0.375 1.921875 -0.375l0 0.578125q-0.484375 0 -0.859375 0.078125q-0.421875 0.09375 -0.71875 0.375q-0.328125 0.3125 -0.546875 0.859375q-0.234375 0.640625 -0.359375 1.6875q-0.125 1.125 -0.125 2.890625q0 1.5625 0.109375 2.65625q0.109375 1.09375 0.34375 1.78125q0.203125 0.59375 0.484375 0.921875q0.265625 0.28125 0.609375 0.421875q0.421875 0.171875 1.0625 0.171875l0 0.5625z" fill-rule="nonzero"/><path fill="#000000" d="m406.5848 486.28598l-0.328125 1.34375l-1.21875 0l0.3125 -1.34375l1.234375 0zm-1.71875 7.625q-0.078125 0.359375 -0.09375 0.515625q-0.015625 0.15625 -0.015625 0.28125q0 0.203125 0.0625 0.328125q0.0625 0.109375 0.203125 0.171875q0.15625 0.0625 0.484375 0.09375l-0.0625 0.34375l-2.140625 0l1.046875 -4.671875q0.09375 -0.40625 0.125 -0.640625q0.03125 -0.25 0.03125 -0.40625q0 -0.203125 -0.0625 -0.3125q-0.0625 -0.109375 -0.203125 -0.15625q-0.125 -0.0625 -0.46875 -0.078125l0.078125 -0.375l1.6875 -0.0625l0.40625 0l-1.078125 4.96875z" fill-rule="nonzero"/><path fill="#000000" d="m406.8442 485.6766q1.1875 0 1.921875 0.359375q0.75 0.359375 1.15625 1.09375q0.421875 0.71875 0.609375 1.875q0.1875 1.15625 0.1875 3.140625q0 1.96875 -0.1875 3.140625q-0.171875 1.171875 -0.59375 1.90625q-0.40625 0.734375 -1.15625 1.09375q-0.75 0.375 -1.9375 0.375l0 -0.5625q0.484375 0 0.859375 -0.078125q0.421875 -0.109375 0.71875 -0.375q0.34375 -0.3125 0.546875 -0.859375q0.25 -0.640625 0.359375 -1.703125q0.125 -1.109375 0.125 -2.875q0 -1.5625 -0.109375 -2.65625q-0.09375 -1.09375 -0.34375 -1.796875q-0.1875 -0.578125 -0.484375 -0.90625q-0.25 -0.28125 -0.609375 -0.4375q-0.40625 -0.15625 -1.0625 -0.15625l0 -0.578125z" fill-rule="nonzero"/><path fill="#000000" d="m416.80463 509.83286q0 0.40625 0.046875 0.609375q0.046875 0.203125 0.15625 0.328125q0.109375 0.125 0.328125 0.203125q0.21875 0.078125 0.546875 0.125q0.328125 0.03125 0.859375 0.046875l0 0.5l-5.140625 0l0 -0.5q0.78125 -0.046875 1.109375 -0.09375q0.328125 -0.0625 0.5 -0.171875q0.171875 -0.125 0.25 -0.34375q0.078125 -0.21875 0.078125 -0.703125l0 -5.625q0 -0.28125 -0.09375 -0.40625q-0.09375 -0.140625 -0.28125 -0.140625q-0.21875 0 -0.640625 0.234375q-0.40625 0.234375 -1.0 0.640625l-0.3125 -0.546875l3.25 -1.9375l0.375 0q-0.03125 0.671875 -0.03125 1.859375l0 5.921875z" fill-rule="nonzero"/><path fill="#000000" d="m425.8431 496.1141l0 -1.453125l9.21875 0l0 1.453125l-9.21875 0zm0 4.328125l0 -1.453125l9.21875 0l0 1.453125l-9.21875 0z" fill-rule="nonzero"/><path fill="#000000" d="m455.3744 498.03598q0 0.6875 -0.234375 1.46875q-0.234375 0.765625 -0.75 1.5625q-0.5 0.78125 -1.1875 1.421875q-0.671875 0.640625 -1.640625 1.046875q-0.96875 0.390625 -2.0625 0.390625q-1.6875 0 -2.734375 -1.015625q-1.03125 -1.03125 -1.03125 -2.71875q0 -2.453125 1.890625 -4.421875q1.90625 -1.984375 4.5625 -1.984375q0.515625 0 1.46875 0.109375q0.96875 0.09375 1.5 0.09375q0.125 0 0.359375 0.015625q0.234375 0 0.34375 0q0.484375 0 0.8125 -0.140625q0.34375 -0.15625 0.484375 -0.578125l0.578125 0q-0.140625 0.484375 -0.25 0.75q-0.09375 0.25 -0.34375 0.671875q-0.25 0.421875 -0.65625 0.640625q-0.390625 0.21875 -0.921875 0.21875q-0.75 0 -1.875 -0.578125q-1.109375 -0.578125 -1.75 -0.578125q-0.8125 0 -1.515625 0.734375q-0.703125 0.734375 -1.125 1.84375q-0.40625 1.09375 -0.640625 2.265625q-0.234375 1.171875 -0.234375 2.15625q0 0.84375 0.34375 1.359375q0.359375 0.515625 0.953125 0.515625q1.296875 0 2.203125 -1.875q0.90625 -1.875 0.90625 -3.796875q0 -0.671875 -0.265625 -1.09375q-0.25 -0.421875 -0.75 -0.421875q-0.640625 0 -1.171875 0.78125l-0.46875 -0.578125q0.875 -1.140625 2.34375 -1.140625q1.109375 0 1.984375 0.828125q0.875 0.828125 0.875 2.046875z" fill-rule="nonzero"/><path fill="#000000" d="m469.5812 508.1766q-1.78125 0 -2.90625 -0.53125q-1.109375 -0.53125 -1.734375 -1.625q-0.625 -1.078125 -0.90625 -2.8125q-0.28125 -1.75 -0.28125 -4.734375q0 -2.953125 0.265625 -4.703125q0.28125 -1.75 0.90625 -2.859375q0.625 -1.109375 1.75 -1.65625q1.125 -0.546875 2.90625 -0.546875l0 0.84375q-0.734375 0 -1.296875 0.125q-0.640625 0.15625 -1.078125 0.5625q-0.5 0.46875 -0.8125 1.28125q-0.375 0.96875 -0.546875 2.546875q-0.1875 1.671875 -0.1875 4.328125q0 2.34375 0.15625 3.984375q0.15625 1.640625 0.515625 2.6875q0.296875 0.875 0.734375 1.359375q0.390625 0.421875 0.921875 0.640625q0.609375 0.25 1.59375 0.25l0 0.859375z" fill-rule="nonzero"/><path fill="#000000" d="m486.9282 493.00473q0.140625 -0.484375 0.234375 -0.96875q0.109375 -0.484375 0.109375 -0.828125q0 -0.53125 -0.265625 -0.78125q-0.265625 -0.265625 -0.796875 -0.3125l0 -0.6875l4.34375 0l0 0.6875q-0.375 0.09375 -0.640625 0.3125q-0.265625 0.203125 -0.46875 0.59375q-0.203125 0.375 -0.515625 1.28125l-3.90625 11.421875l-2.484375 0l-2.34375 -9.78125l-2.796875 9.78125l-2.609375 0l-3.125 -11.671875q-0.234375 -0.84375 -0.421875 -1.171875q-0.171875 -0.34375 -0.390625 -0.5q-0.21875 -0.171875 -0.546875 -0.265625l0 -0.6875l5.609375 0l0 0.6875q-0.546875 0.0625 -0.8125 0.3125q-0.25 0.234375 -0.25 0.671875q0 0.546875 0.296875 1.71875l1.796875 7.234375l3.0 -10.625l2.34375 0l2.4375 10.625l2.203125 -7.046875z" fill-rule="nonzero"/><path fill="#000000" d="m495.35547 509.83286q0 0.40625 0.046875 0.609375q0.046875 0.203125 0.15625 0.328125q0.109375 0.125 0.328125 0.203125q0.21875 0.078125 0.546875 0.125q0.328125 0.03125 0.859375 0.046875l0 0.5l-5.140625 0l0 -0.5q0.78125 -0.046875 1.109375 -0.09375q0.328125 -0.0625 0.5 -0.171875q0.171875 -0.125 0.25 -0.34375q0.078125 -0.21875 0.078125 -0.703125l0 -5.625q0 -0.28125 -0.09375 -0.40625q-0.09375 -0.140625 -0.28125 -0.140625q-0.21875 0 -0.640625 0.234375q-0.40625 0.234375 -1.0 0.640625l-0.3125 -0.546875l3.25 -1.9375l0.375 0q-0.03125 0.671875 -0.03125 1.859375l0 5.921875z" fill-rule="nonzero"/><path fill="#000000" d="m505.2753 497.94223l2.4375 3.453125q0.34375 0.484375 0.609375 0.8125q0.265625 0.3125 0.515625 0.5q0.25 0.171875 0.5625 0.25l0 0.6875l-5.078125 0l0 -0.6875q0.65625 -0.078125 0.65625 -0.546875q0 -0.125 -0.03125 -0.234375q-0.03125 -0.109375 -0.09375 -0.21875q-0.0625 -0.109375 -0.25 -0.375l-1.1875 -1.6875l-1.09375 1.34375q-0.34375 0.421875 -0.4375 0.625q-0.09375 0.203125 -0.09375 0.453125q0 0.25 0.1875 0.421875q0.1875 0.171875 0.59375 0.21875l0 0.6875l-4.0 0l0 -0.6875q0.4375 -0.09375 0.890625 -0.453125q0.453125 -0.375 1.109375 -1.109375l2.171875 -2.46875l-2.453125 -3.453125q-0.21875 -0.34375 -0.390625 -0.546875q-0.171875 -0.21875 -0.34375 -0.40625q-0.171875 -0.203125 -0.3125 -0.3125q-0.140625 -0.109375 -0.265625 -0.15625q-0.125 -0.046875 -0.234375 -0.046875l0 -0.6875l5.046875 0l0 0.6875q-0.65625 0.125 -0.65625 0.578125q0 0.171875 0.09375 0.375q0.09375 0.1875 0.296875 0.484375l1.078125 1.53125l1.0625 -1.328125q0.25 -0.3125 0.34375 -0.515625q0.09375 -0.21875 0.09375 -0.453125q0 -0.296875 -0.21875 -0.46875q-0.203125 -0.1875 -0.5625 -0.203125l0 -0.6875l3.953125 0l0 0.6875q-0.453125 0.109375 -0.859375 0.4375q-0.390625 0.328125 -1.140625 1.234375l-2.0 2.265625z" fill-rule="nonzero"/><path fill="#000000" d="m514.7309 498.66098q-1.171875 0 -1.921875 -0.359375q-0.75 -0.34375 -1.171875 -1.078125q-0.40625 -0.71875 -0.59375 -1.875q-0.1875 -1.15625 -0.1875 -3.140625q0 -1.984375 0.1875 -3.140625q0.1875 -1.171875 0.59375 -1.90625q0.421875 -0.75 1.171875 -1.109375q0.75 -0.375 1.921875 -0.375l0 0.578125q-0.484375 0 -0.859375 0.078125q-0.421875 0.09375 -0.71875 0.375q-0.328125 0.3125 -0.546875 0.859375q-0.234375 0.640625 -0.359375 1.6875q-0.125 1.125 -0.125 2.890625q0 1.5625 0.109375 2.65625q0.109375 1.09375 0.34375 1.78125q0.203125 0.59375 0.484375 0.921875q0.265625 0.28125 0.609375 0.421875q0.421875 0.171875 1.0625 0.171875l0 0.5625z" fill-rule="nonzero"/><path fill="#000000" d="m518.92566 486.28598l-0.328125 1.34375l-1.21875 0l0.3125 -1.34375l1.234375 0zm-1.71875 7.625q-0.078125 0.359375 -0.09375 0.515625q-0.015625 0.15625 -0.015625 0.28125q0 0.203125 0.0625 0.328125q0.0625 0.109375 0.203125 0.171875q0.15625 0.0625 0.484375 0.09375l-0.0625 0.34375l-2.140625 0l1.046875 -4.671875q0.09375 -0.40625 0.125 -0.640625q0.03125 -0.25 0.03125 -0.40625q0 -0.203125 -0.0625 -0.3125q-0.0625 -0.109375 -0.203125 -0.15625q-0.125 -0.0625 -0.46875 -0.078125l0.078125 -0.375l1.6875 -0.0625l0.40625 0l-1.078125 4.96875z" fill-rule="nonzero"/><path fill="#000000" d="m519.18506 485.6766q1.1875 0 1.921875 0.359375q0.75 0.359375 1.15625 1.09375q0.421875 0.71875 0.609375 1.875q0.1875 1.15625 0.1875 3.140625q0 1.96875 -0.1875 3.140625q-0.171875 1.171875 -0.59375 1.90625q-0.40625 0.734375 -1.15625 1.09375q-0.75 0.375 -1.9375 0.375l0 -0.5625q0.484375 0 0.859375 -0.078125q0.421875 -0.109375 0.71875 -0.375q0.34375 -0.3125 0.546875 -0.859375q0.25 -0.640625 0.359375 -1.703125q0.125 -1.109375 0.125 -2.875q0 -1.5625 -0.109375 -2.65625q-0.09375 -1.09375 -0.34375 -1.796875q-0.1875 -0.578125 -0.484375 -0.90625q-0.25 -0.28125 -0.609375 -0.4375q-0.40625 -0.15625 -1.0625 -0.15625l0 -0.578125z" fill-rule="nonzero"/><path fill="#000000" d="m535.68604 498.27036l0 3.953125l-1.53125 0l0 -3.953125l-3.84375 0l0 -1.453125l3.84375 0l0 -3.921875l1.53125 0l0 3.921875l3.84375 0l0 1.453125l-3.84375 0z" fill-rule="nonzero"/><path fill="#000000" d="m547.17676 492.33286q0 -0.75 -0.015625 -1.140625q0 -0.40625 -0.0625 -0.6875q-0.046875 -0.296875 -0.171875 -0.46875q-0.109375 -0.171875 -0.296875 -0.265625q-0.1875 -0.109375 -0.625 -0.203125l0 -0.6875l2.90625 -0.140625l1.28125 0l0 5.953125l0 0.015625q0.625 -0.578125 1.09375 -0.890625q0.46875 -0.3125 1.0 -0.484375q0.53125 -0.1875 1.140625 -0.1875q1.859375 0 2.78125 1.3125q0.921875 1.296875 0.921875 3.90625q0 1.796875 -0.546875 3.015625q-0.546875 1.21875 -1.625 1.828125q-1.078125 0.609375 -2.671875 0.609375q-1.640625 0 -3.0 -0.59375l-0.78125 0.59375l-1.328125 -0.1875l0 -11.296875zm3.015625 7.890625q0 1.28125 0.4375 1.890625q0.4375 0.609375 1.375 0.609375q0.953125 0 1.453125 -1.0q0.515625 -1.0 0.515625 -2.875q0 -2.046875 -0.453125 -3.046875q-0.453125 -1.015625 -1.390625 -1.015625q-0.46875 0 -0.921875 0.234375q-0.4375 0.234375 -0.734375 0.6875q-0.28125 0.4375 -0.28125 0.96875l0 3.546875z" fill-rule="nonzero"/><path fill="#000000" d="m562.96014 509.83286q0 0.40625 0.046875 0.609375q0.046875 0.203125 0.15625 0.328125q0.109375 0.125 0.328125 0.203125q0.21875 0.078125 0.546875 0.125q0.328125 0.03125 0.859375 0.046875l0 0.5l-5.140625 0l0 -0.5q0.78125 -0.046875 1.109375 -0.09375q0.328125 -0.0625 0.5 -0.171875q0.171875 -0.125 0.25 -0.34375q0.078125 -0.21875 0.078125 -0.703125l0 -5.625q0 -0.28125 -0.09375 -0.40625q-0.09375 -0.140625 -0.28125 -0.140625q-0.21875 0 -0.640625 0.234375q-0.40625 0.234375 -1.0 0.640625l-0.3125 -0.546875l3.25 -1.9375l0.375 0q-0.03125 0.671875 -0.03125 1.859375l0 5.921875z" fill-rule="nonzero"/><path fill="#000000" d="m566.4581 488.70786q1.765625 0 2.875 0.53125q1.125 0.53125 1.75 1.625q0.625 1.078125 0.90625 2.8125q0.28125 1.734375 0.28125 4.71875q0 2.953125 -0.28125 4.71875q-0.265625 1.75 -0.890625 2.84375q-0.625 1.109375 -1.75 1.65625q-1.125 0.5625 -2.890625 0.5625l0 -0.859375q0.71875 0 1.28125 -0.125q0.640625 -0.140625 1.09375 -0.5625q0.5 -0.453125 0.8125 -1.28125q0.359375 -0.953125 0.53125 -2.53125q0.1875 -1.6875 0.1875 -4.34375q0 -2.34375 -0.15625 -3.96875q-0.15625 -1.640625 -0.515625 -2.6875q-0.296875 -0.875 -0.734375 -1.359375q-0.375 -0.4375 -0.90625 -0.65625q-0.625 -0.25 -1.59375 -0.25l0 -0.84375z" fill-rule="nonzero"/><path fill="#000000" fill-opacity="0.0" d="m734.042 474.16534l211.37006 0l0 44.566956l-211.37006 0z" fill-rule="evenodd"/><path fill="#000000" d="m764.5305 494.09848l4.453125 0l0 0.390625l-0.21875 0q-0.46875 0 -0.703125 0.203125q-0.234375 0.203125 -0.234375 0.5q0 0.40625 0.34375 1.125l2.3125 4.8125l2.140625 -5.265625q0.171875 -0.421875 0.171875 -0.84375q0 -0.1875 -0.0625 -0.28125q-0.09375 -0.109375 -0.265625 -0.171875q-0.171875 -0.078125 -0.625 -0.078125l0 -0.390625l3.109375 0l0 0.390625q-0.390625 0.046875 -0.609375 0.171875q-0.203125 0.125 -0.453125 0.46875q-0.09375 0.140625 -0.34375 0.796875l-3.890625 9.515625q-0.5625 1.390625 -1.484375 2.09375q-0.90625 0.71875 -1.75 0.71875q-0.609375 0 -1.015625 -0.359375q-0.390625 -0.359375 -0.390625 -0.8125q0 -0.4375 0.28125 -0.703125q0.296875 -0.265625 0.796875 -0.265625q0.34375 0 0.9375 0.234375q0.421875 0.15625 0.515625 0.15625q0.3125 0 0.6875 -0.328125q0.375 -0.328125 0.75 -1.25l0.671875 -1.65625l-3.421875 -7.203125q-0.15625 -0.3125 -0.5 -0.796875q-0.265625 -0.359375 -0.4375 -0.484375q-0.234375 -0.171875 -0.765625 -0.296875l0 -0.390625zm4.46875 -4.875l1.921875 0l1.96875 3.453125l-0.3125 0l-2.84375 -2.21875l-2.390625 2.21875l-0.3125 0l1.96875 -3.453125z" fill-rule="nonzero"/><path fill="#000000" d="m780.1946 498.66098q-1.171875 0 -1.921875 -0.359375q-0.75 -0.34375 -1.171875 -1.078125q-0.40625 -0.71875 -0.59375 -1.875q-0.1875 -1.15625 -0.1875 -3.140625q0 -1.984375 0.1875 -3.140625q0.1875 -1.171875 0.59375 -1.90625q0.421875 -0.75 1.171875 -1.109375q0.75 -0.375 1.921875 -0.375l0 0.578125q-0.484375 0 -0.859375 0.078125q-0.421875 0.09375 -0.71875 0.375q-0.328125 0.3125 -0.546875 0.859375q-0.234375 0.640625 -0.359375 1.6875q-0.125 1.125 -0.125 2.890625q0 1.5625 0.109375 2.65625q0.109375 1.09375 0.34375 1.78125q0.203125 0.59375 0.484375 0.921875q0.265625 0.28125 0.609375 0.421875q0.421875 0.171875 1.0625 0.171875l0 0.5625z" fill-rule="nonzero"/><path fill="#000000" d="m784.38934 486.28598l-0.328125 1.34375l-1.21875 0l0.3125 -1.34375l1.234375 0zm-1.71875 7.625q-0.078125 0.359375 -0.09375 0.515625q-0.015625 0.15625 -0.015625 0.28125q0 0.203125 0.0625 0.328125q0.0625 0.109375 0.203125 0.171875q0.15625 0.0625 0.484375 0.09375l-0.0625 0.34375l-2.140625 0l1.046875 -4.671875q0.09375 -0.40625 0.125 -0.640625q0.03125 -0.25 0.03125 -0.40625q0 -0.203125 -0.0625 -0.3125q-0.0625 -0.109375 -0.203125 -0.15625q-0.125 -0.0625 -0.46875 -0.078125l0.078125 -0.375l1.6875 -0.0625l0.40625 0l-1.078125 4.96875z" fill-rule="nonzero"/><path fill="#000000" d="m784.6488 485.6766q1.1875 0 1.921875 0.359375q0.75 0.359375 1.15625 1.09375q0.421875 0.71875 0.609375 1.875q0.1875 1.15625 0.1875 3.140625q0 1.96875 -0.1875 3.140625q-0.171875 1.171875 -0.59375 1.90625q-0.40625 0.734375 -1.15625 1.09375q-0.75 0.375 -1.9375 0.375l0 -0.5625q0.484375 0 0.859375 -0.078125q0.421875 -0.109375 0.71875 -0.375q0.34375 -0.3125 0.546875 -0.859375q0.25 -0.640625 0.359375 -1.703125q0.125 -1.109375 0.125 -2.875q0 -1.5625 -0.109375 -2.65625q-0.09375 -1.09375 -0.34375 -1.796875q-0.1875 -0.578125 -0.484375 -0.90625q-0.25 -0.28125 -0.609375 -0.4375q-0.40625 -0.15625 -1.0625 -0.15625l0 -0.578125z" fill-rule="nonzero"/><path fill="#000000" d="m795.7747 496.1141l0 -1.453125l9.21875 0l0 1.453125l-9.21875 0zm0 4.328125l0 -1.453125l9.21875 0l0 1.453125l-9.21875 0z" fill-rule="nonzero"/><path fill="#000000" d="m827.8905 493.00473q0.140625 -0.484375 0.234375 -0.96875q0.109375 -0.484375 0.109375 -0.828125q0 -0.53125 -0.265625 -0.78125q-0.265625 -0.265625 -0.796875 -0.3125l0 -0.6875l4.34375 0l0 0.6875q-0.375 0.09375 -0.640625 0.3125q-0.265625 0.203125 -0.46875 0.59375q-0.203125 0.375 -0.515625 1.28125l-3.90625 11.421875l-2.484375 0l-2.34375 -9.78125l-2.796875 9.78125l-2.609375 0l-3.125 -11.671875q-0.234375 -0.84375 -0.421875 -1.171875q-0.171875 -0.34375 -0.390625 -0.5q-0.21875 -0.171875 -0.546875 -0.265625l0 -0.6875l5.609375 0l0 0.6875q-0.546875 0.0625 -0.8125 0.3125q-0.25 0.234375 -0.25 0.671875q0 0.546875 0.296875 1.71875l1.796875 7.234375l3.0 -10.625l2.34375 0l2.4375 10.625l2.203125 -7.046875z" fill-rule="nonzero"/><path fill="#000000" d="m836.3646 510.53598q0.34375 0 0.546875 -0.03125q0.203125 -0.046875 0.328125 -0.140625q0.125 -0.109375 0.203125 -0.265625q0.078125 -0.15625 0.1875 -0.484375l0.59375 0l-0.125 2.03125l-5.71875 0l0 -0.328125q0.296875 -0.734375 0.796875 -1.5q0.515625 -0.765625 1.453125 -1.796875q0.796875 -0.890625 1.15625 -1.34375q0.390625 -0.5 0.578125 -0.859375q0.1875 -0.375 0.265625 -0.6875q0.09375 -0.328125 0.09375 -0.65625q0 -0.515625 -0.171875 -0.90625q-0.15625 -0.40625 -0.5 -0.640625q-0.34375 -0.234375 -0.875 -0.234375q-1.296875 0 -1.75 1.453125l-0.828125 0l0 -1.34375q0.828125 -0.390625 1.5625 -0.5625q0.734375 -0.1875 1.3125 -0.1875q1.296875 0 1.953125 0.578125q0.671875 0.5625 0.671875 1.640625q0 0.359375 -0.078125 0.671875q-0.078125 0.3125 -0.234375 0.609375q-0.15625 0.296875 -0.421875 0.65625q-0.265625 0.34375 -0.578125 0.703125q-0.3125 0.359375 -1.109375 1.1875q-1.3125 1.390625 -1.9375 2.4375l2.625 0z" fill-rule="nonzero"/><path fill="#000000" d="m846.4095 502.28598l-0.15625 -0.0625q-0.84375 0.84375 -1.65625 1.21875q-0.8125 0.375 -1.71875 0.375q-0.890625 0 -1.5625 -0.328125q-0.65625 -0.328125 -1.0 -0.90625q-0.328125 -0.59375 -0.328125 -1.359375q0 -1.53125 1.5 -2.40625q1.515625 -0.875 4.578125 -1.109375l0 -0.984375q0 -0.96875 -0.21875 -1.5q-0.21875 -0.53125 -0.5625 -0.734375q-0.34375 -0.21875 -0.828125 -0.21875q-0.484375 0 -0.828125 0.171875q-0.34375 0.15625 -0.625 0.625q-0.28125 0.46875 -0.421875 1.28125l-1.96875 0l0 -1.890625q0.953125 -0.421875 1.59375 -0.65625q0.640625 -0.234375 1.25 -0.375q0.625 -0.15625 1.109375 -0.21875q0.5 -0.0625 0.984375 -0.0625q1.265625 0 2.015625 0.34375q0.75 0.328125 1.125 1.078125q0.375 0.75 0.375 2.0625l0 4.0625q0 0.6875 0.03125 1.0625q0.03125 0.375 0.09375 0.5625q0.078125 0.1875 0.171875 0.296875q0.109375 0.109375 0.265625 0.171875q0.15625 0.0625 0.5625 0.171875l0 0.6875l-3.875 0l0.09375 -1.359375zm-0.34375 -3.5625q-1.609375 0.046875 -2.390625 0.609375q-0.765625 0.5625 -0.765625 1.640625q0 0.65625 0.34375 1.0q0.359375 0.328125 0.984375 0.328125q0.484375 0 0.90625 -0.25q0.421875 -0.265625 0.671875 -0.6875q0.25 -0.421875 0.25 -0.90625l0 -1.734375z" fill-rule="nonzero"/><path fill="#000000" d="m855.9015 498.66098q-1.171875 0 -1.921875 -0.359375q-0.75 -0.34375 -1.171875 -1.078125q-0.40625 -0.71875 -0.59375 -1.875q-0.1875 -1.15625 -0.1875 -3.140625q0 -1.984375 0.1875 -3.140625q0.1875 -1.171875 0.59375 -1.90625q0.421875 -0.75 1.171875 -1.109375q0.75 -0.375 1.921875 -0.375l0 0.578125q-0.484375 0 -0.859375 0.078125q-0.421875 0.09375 -0.71875 0.375q-0.328125 0.3125 -0.546875 0.859375q-0.234375 0.640625 -0.359375 1.6875q-0.125 1.125 -0.125 2.890625q0 1.5625 0.109375 2.65625q0.109375 1.09375 0.34375 1.78125q0.203125 0.59375 0.484375 0.921875q0.265625 0.28125 0.609375 0.421875q0.421875 0.171875 1.0625 0.171875l0 0.5625z" fill-rule="nonzero"/><path fill="#000000" d="m860.09625 486.28598l-0.328125 1.34375l-1.21875 0l0.3125 -1.34375l1.234375 0zm-1.71875 7.625q-0.078125 0.359375 -0.09375 0.515625q-0.015625 0.15625 -0.015625 0.28125q0 0.203125 0.0625 0.328125q0.0625 0.109375 0.203125 0.171875q0.15625 0.0625 0.484375 0.09375l-0.0625 0.34375l-2.140625 0l1.046875 -4.671875q0.09375 -0.40625 0.125 -0.640625q0.03125 -0.25 0.03125 -0.40625q0 -0.203125 -0.0625 -0.3125q-0.0625 -0.109375 -0.203125 -0.15625q-0.125 -0.0625 -0.46875 -0.078125l0.078125 -0.375l1.6875 -0.0625l0.40625 0l-1.078125 4.96875z" fill-rule="nonzero"/><path fill="#000000" d="m860.35565 485.6766q1.1875 0 1.921875 0.359375q0.75 0.359375 1.15625 1.09375q0.421875 0.71875 0.609375 1.875q0.1875 1.15625 0.1875 3.140625q0 1.96875 -0.1875 3.140625q-0.171875 1.171875 -0.59375 1.90625q-0.40625 0.734375 -1.15625 1.09375q-0.75 0.375 -1.9375 0.375l0 -0.5625q0.484375 0 0.859375 -0.078125q0.421875 -0.109375 0.71875 -0.375q0.34375 -0.3125 0.546875 -0.859375q0.25 -0.640625 0.359375 -1.703125q0.125 -1.109375 0.125 -2.875q0 -1.5625 -0.109375 -2.65625q-0.09375 -1.09375 -0.34375 -1.796875q-0.1875 -0.578125 -0.484375 -0.90625q-0.25 -0.28125 -0.609375 -0.4375q-0.40625 -0.15625 -1.0625 -0.15625l0 -0.578125z" fill-rule="nonzero"/><path fill="#000000" d="m870.31604 509.83286q0 0.40625 0.046875 0.609375q0.046875 0.203125 0.15625 0.328125q0.109375 0.125 0.328125 0.203125q0.21875 0.078125 0.546875 0.125q0.328125 0.03125 0.859375 0.046875l0 0.5l-5.140625 0l0 -0.5q0.78125 -0.046875 1.109375 -0.09375q0.328125 -0.0625 0.5 -0.171875q0.171875 -0.125 0.25 -0.34375q0.078125 -0.21875 0.078125 -0.703125l0 -5.625q0 -0.28125 -0.09375 -0.40625q-0.09375 -0.140625 -0.28125 -0.140625q-0.21875 0 -0.640625 0.234375q-0.40625 0.234375 -1.0 0.640625l-0.3125 -0.546875l3.25 -1.9375l0.375 0q-0.03125 0.671875 -0.03125 1.859375l0 5.921875z" fill-rule="nonzero"/><path fill="#000000" d="m884.72955 498.27036l0 3.953125l-1.53125 0l0 -3.953125l-3.84375 0l0 -1.453125l3.84375 0l0 -3.921875l1.53125 0l0 3.921875l3.84375 0l0 1.453125l-3.84375 0z" fill-rule="nonzero"/><path fill="#000000" d="m896.22034 492.33286q0 -0.75 -0.015625 -1.140625q0 -0.40625 -0.0625 -0.6875q-0.046875 -0.296875 -0.171875 -0.46875q-0.109375 -0.171875 -0.296875 -0.265625q-0.1875 -0.109375 -0.625 -0.203125l0 -0.6875l2.90625 -0.140625l1.28125 0l0 5.953125l0 0.015625q0.625 -0.578125 1.09375 -0.890625q0.46875 -0.3125 1.0 -0.484375q0.53125 -0.1875 1.140625 -0.1875q1.859375 0 2.78125 1.3125q0.921875 1.296875 0.921875 3.90625q0 1.796875 -0.546875 3.015625q-0.546875 1.21875 -1.625 1.828125q-1.078125 0.609375 -2.671875 0.609375q-1.640625 0 -3.0 -0.59375l-0.78125 0.59375l-1.328125 -0.1875l0 -11.296875zm3.015625 7.890625q0 1.28125 0.4375 1.890625q0.4375 0.609375 1.375 0.609375q0.953125 0 1.453125 -1.0q0.515625 -1.0 0.515625 -2.875q0 -2.046875 -0.453125 -3.046875q-0.453125 -1.015625 -1.390625 -1.015625q-0.46875 0 -0.921875 0.234375q-0.4375 0.234375 -0.734375 0.6875q-0.28125 0.4375 -0.28125 0.96875l0 3.546875z" fill-rule="nonzero"/><path fill="#000000" d="m912.0506 510.53598q0.34375 0 0.546875 -0.03125q0.203125 -0.046875 0.328125 -0.140625q0.125 -0.109375 0.203125 -0.265625q0.078125 -0.15625 0.1875 -0.484375l0.59375 0l-0.125 2.03125l-5.71875 0l0 -0.328125q0.296875 -0.734375 0.796875 -1.5q0.515625 -0.765625 1.453125 -1.796875q0.796875 -0.890625 1.15625 -1.34375q0.390625 -0.5 0.578125 -0.859375q0.1875 -0.375 0.265625 -0.6875q0.09375 -0.328125 0.09375 -0.65625q0 -0.515625 -0.171875 -0.90625q-0.15625 -0.40625 -0.5 -0.640625q-0.34375 -0.234375 -0.875 -0.234375q-1.296875 0 -1.75 1.453125l-0.828125 0l0 -1.34375q0.828125 -0.390625 1.5625 -0.5625q0.734375 -0.1875 1.3125 -0.1875q1.296875 0 1.953125 0.578125q0.671875 0.5625 0.671875 1.640625q0 0.359375 -0.078125 0.671875q-0.078125 0.3125 -0.234375 0.609375q-0.15625 0.296875 -0.421875 0.65625q-0.265625 0.34375 -0.578125 0.703125q-0.3125 0.359375 -1.109375 1.1875q-1.3125 1.390625 -1.9375 2.4375l2.625 0z" fill-rule="nonzero"/><path fill="#6aa84f" d="m96.15748 181.25984l0 0c0 -17.586136 14.256386 -31.842514 31.842522 -31.842514l0 0c8.44516 0 16.544434 3.354828 22.516068 9.326447c5.9716187 5.971634 9.326447 14.070908 9.326447 22.516068l0 0c0 17.586136 -14.256378 31.842514 -31.842514 31.842514l0 0c-17.586136 0 -31.842522 -14.256378 -31.842522 -31.842514z" fill-rule="evenodd"/><path fill="#6aa84f" d="m96.15748 358.74014l0 0c0 -17.58612 14.256386 -31.842499 31.842522 -31.842499l0 0c8.44516 0 16.544434 3.354828 22.516068 9.326447c5.9716187 5.971649 9.326447 14.070892 9.326447 22.516052l0 0c0 17.586151 -14.256378 31.84253 -31.842514 31.84253l0 0c-17.586136 0 -31.842522 -14.256378 -31.842522 -31.84253z" fill-rule="evenodd"/><path fill="#000000" fill-opacity="0.0" d="m159.84251 181.25984l288.31494 -72.72441" fill-rule="evenodd"/><path stroke="#999999" stroke-width="4.0" stroke-linejoin="round" stroke-linecap="butt" d="m159.84251 181.25984l288.31494 -72.72441" fill-rule="evenodd"/><path fill="#000000" fill-opacity="0.0" d="m159.84251 181.25984l288.31494 8.0" fill-rule="evenodd"/><path stroke="#999999" stroke-width="4.0" stroke-linejoin="round" stroke-linecap="butt" d="m159.84251 181.25984l288.31494 8.0" fill-rule="evenodd"/><path fill="#000000" fill-opacity="0.0" d="m159.84251 181.25984l288.31494 88.755905" fill-rule="evenodd"/><path stroke="#999999" stroke-width="4.0" stroke-linejoin="round" stroke-linecap="butt" d="m159.84251 181.25984l288.31494 88.755905" fill-rule="evenodd"/><path fill="#000000" fill-opacity="0.0" d="m159.84251 181.25984l288.31494 170.3622" fill-rule="evenodd"/><path stroke="#999999" stroke-width="4.0" stroke-linejoin="round" stroke-linecap="butt" d="m159.84251 181.25984l288.31494 170.3622" fill-rule="evenodd"/><path fill="#000000" fill-opacity="0.0" d="m159.84251 181.25984l288.31494 250.20473" fill-rule="evenodd"/><path stroke="#999999" stroke-width="4.0" stroke-linejoin="round" stroke-linecap="butt" d="m159.84251 181.25984l288.31494 250.20473" fill-rule="evenodd"/><path fill="#000000" fill-opacity="0.0" d="m159.84251 366.72964l288.31494 -258.2047" fill-rule="evenodd"/><path stroke="#999999" stroke-width="4.0" stroke-linejoin="round" stroke-linecap="butt" d="m159.84251 366.72964l288.31494 -258.2047" fill-rule="evenodd"/><path fill="#000000" fill-opacity="0.0" d="m159.84251 358.74277l288.31494 -169.4803" fill-rule="evenodd"/><path stroke="#999999" stroke-width="4.0" stroke-linejoin="round" stroke-linecap="butt" d="m159.84251 358.74277l288.31494 -169.4803" fill-rule="evenodd"/><path fill="#000000" fill-opacity="0.0" d="m159.84251 358.74014l288.31494 -88.724396" fill-rule="evenodd"/><path stroke="#999999" stroke-width="4.0" stroke-linejoin="round" stroke-linecap="butt" d="m159.84251 358.74014l288.31494 -88.724396" fill-rule="evenodd"/><path fill="#000000" fill-opacity="0.0" d="m159.84251 358.74014l288.31494 -7.118103" fill-rule="evenodd"/><path stroke="#999999" stroke-width="4.0" stroke-linejoin="round" stroke-linecap="butt" d="m159.84251 358.74014l288.31494 -7.118103" fill-rule="evenodd"/><path fill="#000000" fill-opacity="0.0" d="m159.84251 358.74014l288.31494 72.72443" fill-rule="evenodd"/><path stroke="#999999" stroke-width="4.0" stroke-linejoin="round" stroke-linecap="butt" d="m159.84251 358.74014l288.31494 72.72443" fill-rule="evenodd"/><path fill="#000000" fill-opacity="0.0" d="m235.38058 2.1653543l136.6929 0l0 44.56693l-136.6929 0z" fill-rule="evenodd"/><path fill="#000000" d="m306.77588 22.22098q0.171875 -0.53125 0.28125 -1.078125q0.125 -0.546875 0.125 -0.9375q0 -0.609375 -0.296875 -0.890625q-0.296875 -0.28125 -0.90625 -0.328125l0 -0.78125l4.890625 0l0 0.78125q-0.4375 0.09375 -0.734375 0.328125q-0.28125 0.234375 -0.515625 0.671875q-0.234375 0.4375 -0.59375 1.453125l-4.390625 12.843752l-2.78125 0l-2.65625 -11.000002l-3.140625 11.000002l-2.921875 0l-3.53125 -13.125002q-0.265625 -0.953125 -0.46875 -1.328125q-0.1875 -0.375 -0.4375 -0.5625q-0.25 -0.1875 -0.625 -0.28125l0 -0.78125l6.3125 0l0 0.78125q-0.609375 0.0625 -0.90625 0.34375q-0.296875 0.265625 -0.296875 0.75q0 0.625 0.34375 1.9375l2.03125 8.140625l3.359375 -11.953125l2.65625 0l2.734375 11.953125l2.46875 -7.9375z" fill-rule="nonzero"/><path fill="#000000" d="m316.27197 41.15848q0 0.453125 0.046875 0.6875q0.046875 0.234375 0.171875 0.375q0.140625 0.140625 0.375 0.234375q0.25 0.078125 0.609375 0.125q0.375 0.03125 0.96875 0.046875l0 0.578125l-5.765625 0l0 -0.578125q0.859375 -0.03125 1.234375 -0.09375q0.375 -0.078125 0.5625 -0.203125q0.203125 -0.140625 0.28125 -0.375q0.09375 -0.25 0.09375 -0.796875l0 -6.328125q0 -0.3125 -0.109375 -0.453125q-0.109375 -0.15625 -0.3125 -0.15625q-0.25 0 -0.71875 0.265625q-0.453125 0.25 -1.140625 0.703125l-0.34375 -0.59375l3.65625 -2.1875l0.4375 0q-0.046875 0.75 -0.046875 2.078125l0 6.671875z" fill-rule="nonzero"/><path fill="#000000" d="m283.5018 68.58535l1.71875 -0.140625q0.1875 1.25 0.875 1.890625q0.703125 0.625 1.6875 0.625q1.1875 0 2.0 -0.890625q0.828125 -0.890625 0.828125 -2.359375q0 -1.40625 -0.796875 -2.21875q-0.78125 -0.8125 -2.0625 -0.8125q-0.78125 0 -1.421875 0.359375q-0.640625 0.359375 -1.0 0.9375l-1.546875 -0.203125l1.296875 -6.859371l6.640625 0l0 1.5625l-5.328125 0l-0.71875 3.5937462q1.203125 -0.8437462 2.515625 -0.8437462q1.75 0 2.953125 1.2187462q1.203125 1.203125 1.203125 3.109375q0 1.8125 -1.046875 3.140625q-1.296875 1.625 -3.515625 1.625q-1.8125 0 -2.96875 -1.015625q-1.15625 -1.03125 -1.3125 -2.71875zm16.246521 -0.21875l2.875 -2.875l-2.875 -2.8593712l1.125 -1.109375l2.859375 2.8593712l2.84375 -2.8593712l1.09375 1.109375l-2.84375 2.8437462l2.859375 2.859375l-1.109375 1.125l-2.859375 -2.875l-2.875 2.875l-1.09375 -1.09375zm15.390747 0.1875l1.640625 -0.21875q0.28125 1.40625 0.953125 2.015625q0.6875 0.609375 1.65625 0.609375q1.15625 0 1.953125 -0.796875q0.796875 -0.796875 0.796875 -1.984375q0 -1.125 -0.734375 -1.859375q-0.734375 -0.734375 -1.875 -0.734375q-0.46875 0 -1.15625 0.171875l0.1875 -1.4375q0.15625 0.015625 0.265625 0.015625q1.046875 0 1.875 -0.5468712q0.84375 -0.546875 0.84375 -1.671875q0 -0.90625 -0.609375 -1.5q-0.609375 -0.59375 -1.578125 -0.59375q-0.953125 0 -1.59375 0.609375q-0.640625 0.59375 -0.8125 1.796875l-1.640625 -0.296875q0.296875 -1.640625 1.359375 -2.546875q1.0625 -0.90625 2.65625 -0.90625q1.09375 0 2.0 0.46875q0.921875 0.46875 1.40625 1.28125q0.5 0.8125 0.5 1.71875q0 0.859375 -0.46875 1.578125q-0.46875 0.7031212 -1.375 1.1249962q1.1875 0.28125 1.84375 1.140625q0.65625 0.859375 0.65625 2.15625q0 1.734375 -1.28125 2.953125q-1.265625 1.21875 -3.21875 1.21875q-1.765625 0 -2.921875 -1.046875q-1.15625 -1.046875 -1.328125 -2.71875z" fill-rule="nonzero"/><path fill="#000000" fill-opacity="0.0" d="m595.38055 2.1653543l136.69293 0l0 44.56693l-136.69293 0z" fill-rule="evenodd"/><path fill="#000000" d="m666.7759 22.22098q0.171875 -0.53125 0.28125 -1.078125q0.125 -0.546875 0.125 -0.9375q0 -0.609375 -0.296875 -0.890625q-0.296875 -0.28125 -0.90625 -0.328125l0 -0.78125l4.890625 0l0 0.78125q-0.4375 0.09375 -0.734375 0.328125q-0.28125 0.234375 -0.515625 0.671875q-0.234375 0.4375 -0.59375 1.453125l-4.390625 12.843752l-2.78125 0l-2.65625 -11.000002l-3.140625 11.000002l-2.921875 0l-3.53125 -13.125002q-0.265625 -0.953125 -0.46875 -1.328125q-0.1875 -0.375 -0.4375 -0.5625q-0.25 -0.1875 -0.625 -0.28125l0 -0.78125l6.3125 0l0 0.78125q-0.609375 0.0625 -0.90625 0.34375q-0.296875 0.265625 -0.296875 0.75q0 0.625 0.34375 1.9375l2.03125 8.140625l3.359375 -11.953125l2.65625 0l2.734375 11.953125l2.46875 -7.9375z" fill-rule="nonzero"/><path fill="#000000" d="m676.31885 41.955357q0.390625 0 0.625 -0.046875q0.234375 -0.046875 0.375 -0.15625q0.140625 -0.109375 0.21875 -0.28125q0.078125 -0.1875 0.203125 -0.546875l0.671875 0l-0.140625 2.28125l-6.421875 0l0 -0.375q0.328125 -0.828125 0.890625 -1.6875q0.578125 -0.859375 1.625 -2.015625q0.90625 -1.0 1.3125 -1.515625q0.4375 -0.5625 0.640625 -0.96875q0.21875 -0.421875 0.3125 -0.78125q0.09375 -0.359375 0.09375 -0.734375q0 -0.578125 -0.1875 -1.03125q-0.1875 -0.453125 -0.578125 -0.703125q-0.375 -0.265625 -0.96875 -0.265625q-1.453125 0 -1.96875 1.625l-0.9375 0l0 -1.5q0.9375 -0.4375 1.765625 -0.640625q0.828125 -0.203125 1.484375 -0.203125q1.453125 0 2.1875 0.640625q0.75 0.640625 0.75 1.84375q0 0.421875 -0.09375 0.765625q-0.078125 0.34375 -0.25 0.6875q-0.171875 0.34375 -0.46875 0.734375q-0.296875 0.390625 -0.65625 0.796875q-0.359375 0.390625 -1.25 1.328125q-1.484375 1.578125 -2.171875 2.75l2.9375 0z" fill-rule="nonzero"/><path fill="#000000" d="m649.67365 72.08535l-1.640625 0l0 -10.453121q-0.59375 0.5625 -1.5625 1.140625q-0.953125 0.5625 -1.71875 0.84375l0 -1.59375q1.375 -0.640625 2.40625 -1.5625q1.03125 -0.921875 1.453125 -1.78125l1.0625 0l0 13.406246zm10.074646 -3.71875l2.875 -2.875l-2.875 -2.8593712l1.125 -1.109375l2.859375 2.8593712l2.84375 -2.8593712l1.09375 1.109375l-2.84375 2.8437462l2.859375 2.859375l-1.109375 1.125l-2.859375 -2.875l-2.875 2.875l-1.09375 -1.09375zm15.390808 0.21875l1.71875 -0.140625q0.1875 1.25 0.875 1.890625q0.703125 0.625 1.6875 0.625q1.1875 0 2.0 -0.890625q0.828125 -0.890625 0.828125 -2.359375q0 -1.40625 -0.796875 -2.21875q-0.78125 -0.8125 -2.0625 -0.8125q-0.78125 0 -1.421875 0.359375q-0.640625 0.359375 -1.0 0.9375l-1.546875 -0.203125l1.296875 -6.859371l6.640625 0l0 1.5625l-5.328125 0l-0.71875 3.5937462q1.203125 -0.8437462 2.515625 -0.8437462q1.75 0 2.953125 1.2187462q1.203125 1.203125 1.203125 3.109375q0 1.8125 -1.046875 3.140625q-1.296875 1.625 -3.515625 1.625q-1.8125 0 -2.96875 -1.015625q-1.15625 -1.03125 -1.3125 -2.71875z" fill-rule="nonzero"/><path fill="#000000" fill-opacity="0.0" d="m4.648294 442.16534l246.67715 0l0 44.566925l-246.67715 0z" fill-rule="evenodd"/><path fill="#000000" d="m29.715677 469.08536l0 -11.78125l-4.40625 0l0 -1.578125l10.578123 0l0 1.578125l-4.406248 0l0 11.78125l-1.765625 0zm7.786604 0l0 -13.359375l1.640625 0l0 4.796875q1.140625 -1.328125 2.890625 -1.328125q1.078125 0 1.859375 0.421875q0.796875 0.421875 1.140625 1.171875q0.34375 0.75 0.34375 2.171875l0 6.125l-1.640625 0l0 -6.125q0 -1.234375 -0.53125 -1.796875q-0.53125 -0.5625 -1.515625 -0.5625q-0.71875 0 -1.359375 0.390625q-0.640625 0.375 -0.921875 1.015625q-0.265625 0.640625 -0.265625 1.78125l0 5.296875l-1.640625 0zm17.000717 -3.109375l1.6875 0.203125q-0.40625 1.484375 -1.484375 2.3125q-1.078125 0.8125 -2.765625 0.8125q-2.125 0 -3.375 -1.296875q-1.234375 -1.3125 -1.234375 -3.671875q0 -2.453125 1.25 -3.796875q1.265625 -1.34375 3.265625 -1.34375q1.9375 0 3.15625 1.328125q1.234375 1.3125 1.234375 3.703125q0 0.15625 0 0.4375l-7.21875 0q0.09375 1.59375 0.90625 2.453125q0.8125 0.84375 2.015625 0.84375q0.90625 0 1.546875 -0.46875q0.640625 -0.484375 1.015625 -1.515625zm-5.390625 -2.65625l5.40625 0q-0.109375 -1.21875 -0.625 -1.828125q-0.78125 -0.953125 -2.03125 -0.953125q-1.125 0 -1.90625 0.765625q-0.765625 0.75 -0.84375 2.015625z" fill-rule="nonzero"/><path fill="#000000" d="m67.296394 456.8041l-0.40625 1.765625l-1.625 0l0.421875 -1.765625l1.609375 0zm-2.25 10.0q-0.09375 0.46875 -0.125 0.6875q-0.015625 0.203125 -0.015625 0.359375q0 0.265625 0.078125 0.421875q0.09375 0.15625 0.28125 0.25q0.203125 0.078125 0.640625 0.109375l-0.09375 0.453125l-2.8125 0l1.375 -6.140625q0.109375 -0.53125 0.15625 -0.84375q0.046875 -0.3125 0.046875 -0.515625q0 -0.265625 -0.078125 -0.40625q-0.078125 -0.15625 -0.265625 -0.21875q-0.171875 -0.078125 -0.625 -0.09375l0.109375 -0.484375l2.21875 -0.09375l0.53125 0l-1.421875 6.515625z" fill-rule="nonzero"/><path fill="#000000" d="m68.11779 465.06973l0.359375 -1.640625l5.015625 0l-0.328125 1.640625l-5.046875 0z" fill-rule="nonzero"/><path fill="#000000" d="m78.28359 467.6166l0.234375 1.453125q-0.6875 0.140625 -1.234375 0.140625q-0.890625 0 -1.390625 -0.28125q-0.484375 -0.28125 -0.6875 -0.734375q-0.203125 -0.46875 -0.203125 -1.9375l0 -5.578125l-1.203125 0l0 -1.265625l1.203125 0l0 -2.390625l1.625 -0.984375l0 3.375l1.65625 0l0 1.265625l-1.65625 0l0 5.671875q0 0.6875 0.078125 0.890625q0.09375 0.203125 0.28125 0.328125q0.203125 0.109375 0.578125 0.109375q0.265625 0 0.71875 -0.0625zm1.6051788 1.46875l0 -13.359375l1.640625 0l0 4.796875q1.140625 -1.328125 2.890625 -1.328125q1.078125 0 1.859375 0.421875q0.796875 0.421875 1.140625 1.171875q0.34375 0.75 0.34375 2.171875l0 6.125l-1.640625 0l0 -6.125q0 -1.234375 -0.53125 -1.796875q-0.53125 -0.5625 -1.515625 -0.5625q-0.71875 0 -1.359375 0.390625q-0.640625 0.375 -0.921875 1.015625q-0.265625 0.640625 -0.265625 1.78125l0 5.296875l-1.640625 0zm19.137146 -1.46875l0.234375 1.453125q-0.6875 0.140625 -1.234375 0.140625q-0.890625 0 -1.390625 -0.28125q-0.484375 -0.28125 -0.6875 -0.734375q-0.203125 -0.46875 -0.203125 -1.9375l0 -5.578125l-1.203125 0l0 -1.265625l1.203125 0l0 -2.390625l1.625 -0.984375l0 3.375l1.65625 0l0 1.265625l-1.65625 0l0 5.671875q0 0.6875 0.078125 0.890625q0.09375 0.203125 0.28125 0.328125q0.203125 0.109375 0.578125 0.109375q0.265625 0 0.71875 -0.0625zm1.5895538 1.46875l0 -9.671875l1.46875 0l0 1.46875q0.5625 -1.03125 1.03125 -1.359375q0.484375 -0.328125 1.0625 -0.328125q0.828125 0 1.6875 0.53125l-0.5625 1.515625q-0.609375 -0.359375 -1.203125 -0.359375q-0.546875 0 -0.96875 0.328125q-0.421875 0.328125 -0.609375 0.890625q-0.28125 0.875 -0.28125 1.921875l0 5.0625l-1.625 0zm12.540802 -1.1875q-0.921875 0.765625 -1.765625 1.09375q-0.828125 0.3125 -1.796875 0.3125q-1.59375 0 -2.453125 -0.78125q-0.859375 -0.78125 -0.859375 -1.984375q0 -0.71875 0.328125 -1.296875q0.328125 -0.59375 0.84375 -0.9375q0.53125 -0.359375 1.1875 -0.546875q0.46875 -0.125 1.453125 -0.25q1.984375 -0.234375 2.921875 -0.5625q0.015625 -0.34375 0.015625 -0.421875q0 -1.0 -0.46875 -1.421875q-0.625 -0.546875 -1.875 -0.546875q-1.15625 0 -1.703125 0.40625q-0.546875 0.40625 -0.8125 1.421875l-1.609375 -0.21875q0.21875 -1.015625 0.71875 -1.640625q0.5 -0.640625 1.453125 -0.984375q0.953125 -0.34375 2.1875 -0.34375q1.25 0 2.015625 0.296875q0.78125 0.28125 1.140625 0.734375q0.375 0.4375 0.515625 1.109375q0.078125 0.421875 0.078125 1.515625l0 2.1875q0 2.28125 0.109375 2.890625q0.109375 0.59375 0.40625 1.15625l-1.703125 0q-0.265625 -0.515625 -0.328125 -1.1875zm-0.140625 -3.671875q-0.890625 0.375 -2.671875 0.625q-1.015625 0.140625 -1.4375 0.328125q-0.421875 0.1875 -0.65625 0.53125q-0.21875 0.34375 -0.21875 0.78125q0 0.65625 0.5 1.09375q0.5 0.4375 1.453125 0.4375q0.9375 0 1.671875 -0.40625q0.75 -0.421875 1.09375 -1.140625q0.265625 -0.5625 0.265625 -1.640625l0 -0.609375zm4.203842 -6.609375l0 -1.890625l1.640625 0l0 1.890625l-1.640625 0zm0 11.46875l0 -9.671875l1.640625 0l0 9.671875l-1.640625 0zm4.144821 0l0 -9.671875l1.46875 0l0 1.375q1.0625 -1.59375 3.078125 -1.59375q0.875 0 1.609375 0.3125q0.7343826 0.3125 1.0937576 0.828125q0.375 0.5 0.515625 1.203125q0.09375 0.453125 0.09375 1.59375l0 5.953125l-1.6406326 0l0 -5.890625q0 -1.0 -0.203125 -1.484375q-0.1875 -0.5 -0.671875 -0.796875q-0.484375 -0.296875 -1.140625 -0.296875q-1.046875 0 -1.8125 0.671875q-0.75 0.65625 -0.75 2.515625l0 5.28125l-1.640625 0zm10.375725 -11.46875l0 -1.890625l1.640625 0l0 1.890625l-1.640625 0zm0 11.46875l0 -9.671875l1.640625 0l0 9.671875l-1.640625 0zm4.144821 0l0 -9.671875l1.46875 0l0 1.375q1.0625 -1.59375 3.078125 -1.59375q0.875 0 1.609375 0.3125q0.734375 0.3125 1.09375 0.828125q0.375 0.5 0.515625 1.203125q0.09375 0.453125 0.09375 1.59375l0 5.953125l-1.640625 0l0 -5.890625q0 -1.0 -0.203125 -1.484375q-0.1875 -0.5 -0.671875 -0.796875q-0.484375 -0.296875 -1.140625 -0.296875q-1.046875 0 -1.8125 0.671875q-0.75 0.65625 -0.75 2.515625l0 5.28125l-1.640625 0zm10.063217 0.796875l1.59375 0.234375q0.109375 0.75 0.5625 1.078125q0.609375 0.453125 1.671875 0.453125q1.140625 0 1.75 -0.453125q0.625 -0.453125 0.84375 -1.265625q0.125 -0.5 0.109375 -2.109375q-1.0625 1.265625 -2.671875 1.265625q-2.0 0 -3.09375 -1.4375q-1.09375 -1.4375 -1.09375 -3.453125q0 -1.390625 0.5 -2.5625q0.515625 -1.171875 1.453125 -1.796875q0.953125 -0.640625 2.25 -0.640625q1.703125 0 2.8125 1.375l0 -1.15625l1.515625 0l0 8.359375q0 2.265625 -0.46875 3.203125q-0.453125 0.9375 -1.453125 1.484375q-0.984375 0.546875 -2.453125 0.546875q-1.71875 0 -2.796875 -0.78125q-1.0625 -0.765625 -1.03125 -2.34375zm1.359375 -5.8125q0 1.90625 0.75 2.78125q0.765625 0.875 1.90625 0.875q1.125 0 1.890625 -0.859375q0.765625 -0.875 0.765625 -2.734375q0 -1.78125 -0.796875 -2.671875q-0.78125 -0.90625 -1.890625 -0.90625q-1.09375 0 -1.859375 0.890625q-0.765625 0.875 -0.765625 2.625zm21.137146 1.90625l1.6875 0.203125q-0.40625 1.484375 -1.484375 2.3125q-1.078125 0.8125 -2.765625 0.8125q-2.125 0 -3.375 -1.296875q-1.234375 -1.3125 -1.234375 -3.671875q0 -2.453125 1.25 -3.796875q1.265625 -1.34375 3.265625 -1.34375q1.9375 0 3.15625 1.328125q1.234375 1.3125 1.234375 3.703125q0 0.15625 0 0.4375l-7.21875 0q0.09375 1.59375 0.90625 2.453125q0.8125 0.84375 2.015625 0.84375q0.90625 0 1.546875 -0.46875q0.640625 -0.484375 1.015625 -1.515625zm-5.390625 -2.65625l5.40625 0q-0.109375 -1.21875 -0.625 -1.828125q-0.78125 -0.953125 -2.03125 -0.953125q-1.125 0 -1.90625 0.765625q-0.765625 0.75 -0.84375 2.015625zm8.047592 5.765625l3.53125 -5.03125l-3.265625 -4.640625l2.046875 0l1.484375 2.265625q0.421875 0.640625 0.671875 1.078125q0.40625 -0.59375 0.734375 -1.0625l1.640625 -2.28125l1.953125 0l-3.34375 4.546875l3.59375 5.125l-2.015625 0l-1.984375 -3.0l-0.515625 -0.8125l-2.546875 3.8125l-1.984375 0zm16.734375 -1.1875q-0.921875 0.765625 -1.765625 1.09375q-0.828125 0.3125 -1.796875 0.3125q-1.59375 0 -2.453125 -0.78125q-0.859375 -0.78125 -0.859375 -1.984375q0 -0.71875 0.328125 -1.296875q0.328125 -0.59375 0.84375 -0.9375q0.53125 -0.359375 1.1875 -0.546875q0.46875 -0.125 1.453125 -0.25q1.984375 -0.234375 2.921875 -0.5625q0.015625 -0.34375 0.015625 -0.421875q0 -1.0 -0.46875 -1.421875q-0.625 -0.546875 -1.875 -0.546875q-1.15625 0 -1.703125 0.40625q-0.546875 0.40625 -0.8125 1.421875l-1.609375 -0.21875q0.21875 -1.015625 0.71875 -1.640625q0.5 -0.640625 1.453125 -0.984375q0.953125 -0.34375 2.1875 -0.34375q1.25 0 2.015625 0.296875q0.78125 0.28125 1.140625 0.734375q0.375 0.4375 0.515625 1.109375q0.078125 0.421875 0.078125 1.515625l0 2.1875q0 2.28125 0.109375 2.890625q0.109375 0.59375 0.40625 1.15625l-1.703125 0q-0.265625 -0.515625 -0.328125 -1.1875zm-0.140625 -3.671875q-0.890625 0.375 -2.671875 0.625q-1.015625 0.140625 -1.4375 0.328125q-0.421875 0.1875 -0.65625 0.53125q-0.21875 0.34375 -0.21875 0.78125q0 0.65625 0.5 1.09375q0.5 0.4375 1.453125 0.4375q0.9375 0 1.671875 -0.40625q0.75 -0.421875 1.09375 -1.140625q0.265625 -0.5625 0.265625 -1.640625l0 -0.609375zm4.203842 4.859375l0 -9.671875l1.46875 0l0 1.359375q0.453125 -0.71875 1.203125 -1.140625q0.765625 -0.4375 1.71875 -0.4375q1.078125 0 1.765625 0.453125q0.6875 0.4375 0.96875 1.234375q1.15625 -1.6875 2.984375 -1.6875q1.453125 0 2.21875 0.796875q0.78125 0.796875 0.78125 2.453125l0 6.640625l-1.640625 0l0 -6.09375q0 -0.984375 -0.15625 -1.40625q-0.15625 -0.4375 -0.578125 -0.703125q-0.421875 -0.265625 -0.984375 -0.265625q-1.015625 0 -1.6875 0.6875q-0.671875 0.671875 -0.671875 2.15625l0 5.625l-1.640625 0l0 -6.28125q0 -1.09375 -0.40625 -1.640625q-0.40625 -0.546875 -1.3125 -0.546875q-0.6875 0 -1.28125 0.359375q-0.59375 0.359375 -0.859375 1.0625q-0.25 0.703125 -0.25 2.03125l0 5.015625l-1.640625 0zm15.540802 3.703125l0 -13.375l1.484375 0l0 1.25q0.53125 -0.734375 1.1875 -1.09375q0.671875 -0.375 1.625 -0.375q1.234375 0 2.171875 0.640625q0.953125 0.625 1.4375 1.796875q0.484375 1.15625 0.484375 2.546875q0 1.484375 -0.53125 2.671875q-0.53125 1.1875 -1.546875 1.828125q-1.015625 0.625 -2.140625 0.625q-0.8125 0 -1.46875 -0.34375q-0.65625 -0.34375 -1.0625 -0.875l0 4.703125l-1.640625 0zm1.484375 -8.484375q0 1.859375 0.75 2.765625q0.765625 0.890625 1.828125 0.890625q1.09375 0 1.875 -0.921875q0.78125 -0.9375 0.78125 -2.875q0 -1.84375 -0.765625 -2.765625q-0.75 -0.921875 -1.8125 -0.921875q-1.046875 0 -1.859375 0.984375q-0.796875 0.96875 -0.796875 2.84375zm8.844467 4.78125l0 -13.359375l1.640625 0l0 13.359375l-1.640625 0zm10.816696 -3.109375l1.6875 0.203125q-0.40625 1.484375 -1.484375 2.3125q-1.078125 0.8125 -2.765625 0.8125q-2.125 0 -3.375 -1.296875q-1.234375 -1.3125 -1.234375 -3.671875q0 -2.453125 1.25 -3.796875q1.265625 -1.34375 3.265625 -1.34375q1.9375 0 3.15625 1.328125q1.234375 1.3125 1.234375 3.703125q0 0.15625 0 0.4375l-7.21875 0q0.09375 1.59375 0.90625 2.453125q0.8125 0.84375 2.015625 0.84375q0.90625 0 1.546875 -0.46875q0.640625 -0.484375 1.015625 -1.515625zm-5.390625 -2.65625l5.40625 0q-0.109375 -1.21875 -0.625 -1.828125q-0.78125 -0.953125 -2.03125 -0.953125q-1.125 0 -1.90625 0.765625q-0.765625 0.75 -0.84375 2.015625z" fill-rule="nonzero"/><path fill="#000000" fill-opacity="0.0" d="m716.6483 442.16534l246.67712 0l0 44.566925l-246.67712 0z" fill-rule="evenodd"/><path fill="#000000" d="m770.1692 469.08536l0 -11.78125l-4.40625 0l0 -1.578125l10.578125 0l0 1.578125l-4.40625 0l0 11.78125l-1.765625 0zm7.786621 0l0 -13.359375l1.640625 0l0 4.796875q1.140625 -1.328125 2.890625 -1.328125q1.078125 0 1.859375 0.421875q0.796875 0.421875 1.140625 1.171875q0.34375 0.75 0.34375 2.171875l0 6.125l-1.640625 0l0 -6.125q0 -1.234375 -0.53125 -1.796875q-0.53125 -0.5625 -1.515625 -0.5625q-0.71875 0 -1.359375 0.390625q-0.640625 0.375 -0.921875 1.015625q-0.265625 0.640625 -0.265625 1.78125l0 5.296875l-1.640625 0zm17.000732 -3.109375l1.6875 0.203125q-0.40625 1.484375 -1.484375 2.3125q-1.078125 0.8125 -2.765625 0.8125q-2.125 0 -3.375 -1.296875q-1.234375 -1.3125 -1.234375 -3.671875q0 -2.453125 1.25 -3.796875q1.265625 -1.34375 3.265625 -1.34375q1.9375 0 3.15625 1.328125q1.234375 1.3125 1.234375 3.703125q0 0.15625 0 0.4375l-7.21875 0q0.09375 1.59375 0.90625 2.453125q0.8125 0.84375 2.015625 0.84375q0.90625 0 1.546875 -0.46875q0.640625 -0.484375 1.015625 -1.515625zm-5.390625 -2.65625l5.40625 0q-0.109375 -1.21875 -0.625 -1.828125q-0.78125 -0.953125 -2.03125 -0.953125q-1.125 0 -1.90625 0.765625q-0.765625 0.75 -0.84375 2.015625z" fill-rule="nonzero"/><path fill="#000000" d="m805.6093 457.60098l0.40625 -1.875l1.625 0l-0.390625 1.875l-1.640625 0zm-2.390625 11.484375l2.015625 -9.671875l1.65625 0l-2.03125 9.671875l-1.640625 0zm4.4416504 -4.015625l0.359375 -1.640625l5.015625 0l-0.328125 1.640625l-5.046875 0z" fill-rule="nonzero"/><path fill="#000000" d="m817.8262 467.6166l0.234375 1.453125q-0.6875 0.140625 -1.234375 0.140625q-0.890625 0 -1.390625 -0.28125q-0.484375 -0.28125 -0.6875 -0.734375q-0.203125 -0.46875 -0.203125 -1.9375l0 -5.578125l-1.203125 0l0 -1.265625l1.203125 0l0 -2.390625l1.625 -0.984375l0 3.375l1.65625 0l0 1.265625l-1.65625 0l0 5.671875q0 0.6875 0.078125 0.890625q0.09375 0.203125 0.28125 0.328125q0.203125 0.109375 0.578125 0.109375q0.265625 0 0.71875 -0.0625zm1.6051636 1.46875l0 -13.359375l1.640625 0l0 4.796875q1.140625 -1.328125 2.890625 -1.328125q1.078125 0 1.859375 0.421875q0.796875 0.421875 1.140625 1.171875q0.34375 0.75 0.34375 2.171875l0 6.125l-1.640625 0l0 -6.125q0 -1.234375 -0.53125 -1.796875q-0.53125 -0.5625 -1.515625 -0.5625q-0.71875 0 -1.359375 0.390625q-0.640625 0.375 -0.921875 1.015625q-0.265625 0.640625 -0.265625 1.78125l0 5.296875l-1.640625 0zm15.559021 3.703125l0 -13.375l1.484375 0l0 1.25q0.53125 -0.734375 1.1875 -1.09375q0.671875 -0.375 1.625 -0.375q1.234375 0 2.171875 0.640625q0.953125 0.625 1.4375 1.796875q0.484375 1.15625 0.484375 2.546875q0 1.484375 -0.53125 2.671875q-0.53125 1.1875 -1.546875 1.828125q-1.015625 0.625 -2.140625 0.625q-0.8125 0 -1.46875 -0.34375q-0.65625 -0.34375 -1.0625 -0.875l0 4.703125l-1.640625 0zm1.484375 -8.484375q0 1.859375 0.75 2.765625q0.765625 0.890625 1.828125 0.890625q1.09375 0 1.875 -0.921875q0.78125 -0.9375 0.78125 -2.875q0 -1.84375 -0.765625 -2.765625q-0.75 -0.921875 -1.8125 -0.921875q-1.046875 0 -1.859375 0.984375q-0.796875 0.96875 -0.796875 2.84375zm8.875732 4.78125l0 -9.671875l1.46875 0l0 1.46875q0.5625 -1.03125 1.03125 -1.359375q0.484375 -0.328125 1.0625 -0.328125q0.828125 0 1.6875 0.53125l-0.5625 1.515625q-0.609375 -0.359375 -1.203125 -0.359375q-0.546875 0 -0.96875 0.328125q-0.421875 0.328125 -0.609375 0.890625q-0.28125 0.875 -0.28125 1.921875l0 5.0625l-1.625 0zm12.8532715 -3.109375l1.6875 0.203125q-0.40625 1.484375 -1.484375 2.3125q-1.078125 0.8125 -2.765625 0.8125q-2.125 0 -3.375 -1.296875q-1.234375 -1.3125 -1.234375 -3.671875q0 -2.453125 1.25 -3.796875q1.265625 -1.34375 3.265625 -1.34375q1.9375 0 3.15625 1.328125q1.234375 1.3125 1.234375 3.703125q0 0.15625 0 0.4375l-7.21875 0q0.09375 1.59375 0.90625 2.453125q0.8125 0.84375 2.015625 0.84375q0.90625 0 1.546875 -0.46875q0.640625 -0.484375 1.015625 -1.515625zm-5.390625 -2.65625l5.40625 0q-0.109375 -1.21875 -0.625 -1.828125q-0.78125 -0.953125 -2.03125 -0.953125q-1.125 0 -1.90625 0.765625q-0.765625 0.75 -0.84375 2.015625zm15.406982 5.765625l0 -1.21875q-0.90625 1.4375 -2.703125 1.4375q-1.15625 0 -2.125 -0.640625q-0.96875 -0.640625 -1.5 -1.78125q-0.53125 -1.140625 -0.53125 -2.625q0 -1.453125 0.484375 -2.625q0.484375 -1.1875 1.4375 -1.8125q0.96875 -0.625 2.171875 -0.625q0.875 0 1.546875 0.375q0.6875 0.359375 1.109375 0.953125l0 -4.796875l1.640625 0l0 13.359375l-1.53125 0zm-5.171875 -4.828125q0 1.859375 0.78125 2.78125q0.78125 0.921875 1.84375 0.921875q1.078125 0 1.828125 -0.875q0.75 -0.890625 0.75 -2.6875q0 -1.984375 -0.765625 -2.90625q-0.765625 -0.9375 -1.890625 -0.9375q-1.078125 0 -1.8125 0.890625q-0.734375 0.890625 -0.734375 2.8125zm9.281982 -6.640625l0 -1.890625l1.640625 0l0 1.890625l-1.640625 0zm0 11.46875l0 -9.671875l1.640625 0l0 9.671875l-1.640625 0zm10.457336 -3.546875l1.609375 0.21875q-0.265625 1.65625 -1.359375 2.609375q-1.078125 0.9375 -2.671875 0.9375q-1.984375 0 -3.1875 -1.296875q-1.203125 -1.296875 -1.203125 -3.71875q0 -1.578125 0.515625 -2.75q0.515625 -1.171875 1.578125 -1.75q1.0625 -0.59375 2.3125 -0.59375q1.578125 0 2.578125 0.796875q1.0 0.796875 1.28125 2.265625l-1.59375 0.234375q-0.234375 -0.96875 -0.8125 -1.453125q-0.578125 -0.5 -1.390625 -0.5q-1.234375 0 -2.015625 0.890625q-0.78125 0.890625 -0.78125 2.8125q0 1.953125 0.75 2.84375q0.75 0.875 1.953125 0.875q0.96875 0 1.609375 -0.59375q0.65625 -0.59375 0.828125 -1.828125zm6.59375 2.078125l0.234375 1.453125q-0.6875 0.140625 -1.234375 0.140625q-0.890625 0 -1.390625 -0.28125q-0.484375 -0.28125 -0.6875 -0.734375q-0.203125 -0.46875 -0.203125 -1.9375l0 -5.578125l-1.203125 0l0 -1.265625l1.203125 0l0 -2.390625l1.625 -0.984375l0 3.375l1.65625 0l0 1.265625l-1.65625 0l0 5.671875q0 0.6875 0.078125 0.890625q0.09375 0.203125 0.28125 0.328125q0.203125 0.109375 0.578125 0.109375q0.265625 0 0.71875 -0.0625zm1.6051636 -10.0l0 -1.890625l1.640625 0l0 1.890625l-1.640625 0zm0 11.46875l0 -9.671875l1.640625 0l0 9.671875l-1.640625 0zm3.5354614 -4.84375q0 -2.6875 1.484375 -3.96875q1.25 -1.078125 3.046875 -1.078125q2.0 0 3.265625 1.3125q1.265625 1.296875 1.265625 3.609375q0 1.859375 -0.5625 2.9375q-0.5625 1.0625 -1.640625 1.65625q-1.0625 0.59375 -2.328125 0.59375q-2.03125 0 -3.28125 -1.296875q-1.25 -1.3125 -1.25 -3.765625zm1.6875 0q0 1.859375 0.796875 2.796875q0.8125 0.921875 2.046875 0.921875q1.21875 0 2.03125 -0.921875q0.8125 -0.9375 0.8125 -2.84375q0 -1.796875 -0.8125 -2.71875q-0.8125 -0.921875 -2.03125 -0.921875q-1.234375 0 -2.046875 0.921875q-0.796875 0.90625 -0.796875 2.765625zm9.297546 4.84375l0 -9.671875l1.46875 0l0 1.375q1.0625 -1.59375 3.078125 -1.59375q0.875 0 1.609375 0.3125q0.734375 0.3125 1.09375 0.828125q0.375 0.5 0.515625 1.203125q0.09375 0.453125 0.09375 1.59375l0 5.953125l-1.640625 0l0 -5.890625q0 -1.0 -0.203125 -1.484375q-0.1875 -0.5 -0.671875 -0.796875q-0.484375 -0.296875 -1.140625 -0.296875q-1.046875 0 -1.8125 0.671875q-0.75 0.65625 -0.75 2.515625l0 5.28125l-1.640625 0z" fill-rule="nonzero"/><path fill="#000000" fill-opacity="0.0" d="m235.38058 442.16534l136.6929 0l0 44.566925l-136.6929 0z" fill-rule="evenodd"/><path fill="#000000" d="m294.06104 461.47098q0 -0.84375 -0.015625 -1.28125q0 -0.453125 -0.0625 -0.78125q-0.0625 -0.328125 -0.1875 -0.515625q-0.125 -0.1875 -0.34375 -0.296875q-0.21875 -0.125 -0.703125 -0.234375l0 -0.78125l3.265625 -0.15625l1.4375 0l0 6.71875l0.015625 0q0.703125 -0.640625 1.21875 -0.984375q0.53125 -0.359375 1.125 -0.5625q0.609375 -0.203125 1.28125 -0.203125q2.09375 0 3.125 1.46875q1.046875 1.46875 1.046875 4.40625q0 2.015625 -0.609375 3.390625q-0.609375 1.359375 -1.828125 2.046875q-1.21875 0.6875 -3.0 0.6875q-1.859375 0 -3.390625 -0.671875l-0.875 0.671875l-1.5 -0.21875l0 -12.703125zm3.390625 8.890625q0 1.4375 0.5 2.125q0.5 0.6875 1.546875 0.6875q1.078125 0 1.640625 -1.125q0.5625 -1.140625 0.5625 -3.234375q0 -2.3125 -0.5 -3.4375q-0.5 -1.140625 -1.5625 -1.140625q-0.515625 0 -1.03125 0.265625q-0.5 0.265625 -0.828125 0.765625q-0.328125 0.5 -0.328125 1.09375l0 4.0z" fill-rule="nonzero"/><path fill="#000000" d="m311.83057 481.15848q0 0.453125 0.046875 0.6875q0.046875 0.234375 0.171875 0.375q0.140625 0.140625 0.375 0.234375q0.25 0.078125 0.609375 0.125q0.375 0.03125 0.96875 0.046875l0 0.578125l-5.765625 0l0 -0.578125q0.859375 -0.03125 1.234375 -0.09375q0.375 -0.078125 0.5625 -0.203125q0.203125 -0.140625 0.28125 -0.375q0.09375 -0.25 0.09375 -0.796875l0 -6.328125q0 -0.3125 -0.109375 -0.453125q-0.109375 -0.15625 -0.3125 -0.15625q-0.25 0 -0.71875 0.265625q-0.453125 0.25 -1.140625 0.703125l-0.34375 -0.59375l3.65625 -2.1875l0.4375 0q-0.046875 0.75 -0.046875 2.078125l0 6.671875z" fill-rule="nonzero"/><path fill="#000000" d="m283.5018 508.58536l1.71875 -0.140625q0.1875 1.25 0.875 1.890625q0.703125 0.625 1.6875 0.625q1.1875 0 2.0 -0.890625q0.828125 -0.890625 0.828125 -2.359375q0 -1.40625 -0.796875 -2.21875q-0.78125 -0.8125 -2.0625 -0.8125q-0.78125 0 -1.421875 0.359375q-0.640625 0.359375 -1.0 0.9375l-1.546875 -0.203125l1.296875 -6.859375l6.640625 0l0 1.5625l-5.328125 0l-0.71875 3.59375q1.203125 -0.84375 2.515625 -0.84375q1.75 0 2.953125 1.21875q1.203125 1.203125 1.203125 3.109375q0 1.8125 -1.046875 3.140625q-1.296875 1.6249695 -3.515625 1.6249695q-1.8125 0 -2.96875 -1.0155945q-1.15625 -1.03125 -1.3125 -2.71875zm16.246521 -0.21875l2.875 -2.875l-2.875 -2.859375l1.125 -1.109375l2.859375 2.859375l2.84375 -2.859375l1.09375 1.109375l-2.84375 2.84375l2.859375 2.859375l-1.109375 1.125l-2.859375 -2.875l-2.875 2.875l-1.09375 -1.09375zm21.562622 3.7187195l-1.640625 0l0 -10.4530945q-0.59375 0.5625 -1.5625 1.140625q-0.953125 0.5625 -1.71875 0.84375l0 -1.59375q1.375 -0.640625 2.40625 -1.5625q1.03125 -0.921875 1.453125 -1.78125l1.0625 0l0 13.4062195z" fill-rule="nonzero"/><path fill="#000000" fill-opacity="0.0" d="m595.38055 442.16534l136.69293 0l0 44.566925l-136.69293 0z" fill-rule="evenodd"/><path fill="#000000" d="m654.06104 461.47098q0 -0.84375 -0.015625 -1.28125q0 -0.453125 -0.0625 -0.78125q-0.0625 -0.328125 -0.1875 -0.515625q-0.125 -0.1875 -0.34375 -0.296875q-0.21875 -0.125 -0.703125 -0.234375l0 -0.78125l3.265625 -0.15625l1.4375 0l0 6.71875l0.015625 0q0.703125 -0.640625 1.21875 -0.984375q0.53125 -0.359375 1.125 -0.5625q0.609375 -0.203125 1.28125 -0.203125q2.09375 0 3.125 1.46875q1.046875 1.46875 1.046875 4.40625q0 2.015625 -0.609375 3.390625q-0.609375 1.359375 -1.828125 2.046875q-1.21875 0.6875 -3.0 0.6875q-1.859375 0 -3.390625 -0.671875l-0.875 0.671875l-1.5 -0.21875l0 -12.703125zm3.390625 8.890625q0 1.4375 0.5 2.125q0.5 0.6875 1.546875 0.6875q1.078125 0 1.640625 -1.125q0.5625 -1.140625 0.5625 -3.234375q0 -2.3125 -0.5 -3.4375q-0.5 -1.140625 -1.5625 -1.140625q-0.515625 0 -1.03125 0.265625q-0.5 0.265625 -0.828125 0.765625q-0.328125 0.5 -0.328125 1.09375l0 4.0z" fill-rule="nonzero"/><path fill="#000000" d="m671.87744 481.95535q0.390625 0 0.625 -0.046875q0.234375 -0.046875 0.375 -0.15625q0.140625 -0.109375 0.21875 -0.28125q0.078125 -0.1875 0.203125 -0.546875l0.671875 0l-0.140625 2.28125l-6.421875 0l0 -0.375q0.328125 -0.828125 0.890625 -1.6875q0.578125 -0.859375 1.625 -2.015625q0.90625 -1.0 1.3125 -1.515625q0.4375 -0.5625 0.640625 -0.96875q0.21875 -0.421875 0.3125 -0.78125q0.09375 -0.359375 0.09375 -0.734375q0 -0.578125 -0.1875 -1.03125q-0.1875 -0.453125 -0.578125 -0.703125q-0.375 -0.265625 -0.96875 -0.265625q-1.453125 0 -1.96875 1.625l-0.9375 0l0 -1.5q0.9375 -0.4375 1.765625 -0.640625q0.828125 -0.203125 1.484375 -0.203125q1.453125 0 2.1875 0.640625q0.75 0.640625 0.75 1.84375q0 0.421875 -0.09375 0.765625q-0.078125 0.34375 -0.25 0.6875q-0.171875 0.34375 -0.46875 0.734375q-0.296875 0.390625 -0.65625 0.796875q-0.359375 0.390625 -1.25 1.328125q-1.484375 1.578125 -2.171875 2.75l2.9375 0z" fill-rule="nonzero"/><path fill="#000000" d="m649.67365 512.0853l-1.640625 0l0 -10.4530945q-0.59375 0.5625 -1.5625 1.140625q-0.953125 0.5625 -1.71875 0.84375l0 -1.59375q1.375 -0.640625 2.40625 -1.5625q1.03125 -0.921875 1.453125 -1.78125l1.0625 0l0 13.4062195zm10.074646 -3.7187195l2.875 -2.875l-2.875 -2.859375l1.125 -1.109375l2.859375 2.859375l2.84375 -2.859375l1.09375 1.109375l-2.84375 2.84375l2.859375 2.859375l-1.109375 1.125l-2.859375 -2.875l-2.875 2.875l-1.09375 -1.09375zm21.562683 3.7187195l-1.640625 0l0 -10.4530945q-0.59375 0.5625 -1.5625 1.140625q-0.953125 0.5625 -1.71875 0.84375l0 -1.59375q1.375 -0.640625 2.40625 -1.5625q1.03125 -0.921875 1.453125 -1.78125l1.0625 0l0 13.4062195z" fill-rule="nonzero"/></g></svg>